<?xml version="1.0" encoding="utf-8" standalone="no"?>
<!DOCTYPE svg PUBLIC "-//W3C//DTD SVG 1.1//EN"
  "http://www.w3.org/Graphics/SVG/1.1/DTD/svg11.dtd">
<svg xmlns:xlink="http://www.w3.org/1999/xlink" width="172.96125pt" height="363.645313pt" viewBox="0 0 172.96125 363.645313" xmlns="http://www.w3.org/2000/svg" version="1.1">
 <metadata>
  <rdf:RDF xmlns:dc="http://purl.org/dc/elements/1.1/" xmlns:cc="http://creativecommons.org/ns#" xmlns:rdf="http://www.w3.org/1999/02/22-rdf-syntax-ns#">
   <cc:Work>
    <dc:type rdf:resource="http://purl.org/dc/dcmitype/StillImage"/>
    <dc:date>2023-07-05T16:54:04.795259</dc:date>
    <dc:format>image/svg+xml</dc:format>
    <dc:creator>
     <cc:Agent>
      <dc:title>Matplotlib v3.7.1, https://matplotlib.org/</dc:title>
     </cc:Agent>
    </dc:creator>
   </cc:Work>
  </rdf:RDF>
 </metadata>
 <defs>
  <style type="text/css">*{stroke-linejoin: round; stroke-linecap: butt}</style>
 </defs>
 <g id="figure_1">
  <g id="patch_1">
   <path d="M 0 363.645313 
L 172.96125 363.645313 
L 172.96125 0 
L 0 0 
z
" style="fill: #ffffff"/>
  </g>
  <g id="axes_1">
   <g id="patch_2">
    <path d="M 54.16125 339.84 
L 165.76125 339.84 
L 165.76125 7.2 
L 54.16125 7.2 
z
" style="fill: #ffffff"/>
   </g>
   <g id="PathCollection_1"/>
   <g id="PathCollection_2"/>
   <g id="PathCollection_3"/>
   <g id="PathCollection_4"/>
   <g id="PathCollection_5"/>
   <g id="PathCollection_6"/>
   <g id="patch_3">
    <path d="M 138.01005 339.61824 
L 156.31245 339.61824 
Q 161.89245 339.61824 161.89245 331.30224 
L 161.89245 325.921051 
Q 161.89245 317.605051 156.31245 317.605051 
L 138.01005 317.605051 
Q 132.43005 317.605051 132.43005 325.921051 
L 132.43005 331.30224 
Q 132.43005 339.61824 138.01005 339.61824 
z
" clip-path="url(#p0e997178a0)" style="fill: #cccccc"/>
   </g>
   <g id="patch_4">
    <path d="M 100.81005 339.61824 
L 119.11245 339.61824 
Q 124.69245 339.61824 124.69245 331.30224 
L 124.69245 250.124885 
Q 124.69245 241.808885 119.11245 241.808885 
L 100.81005 241.808885 
Q 95.23005 241.808885 95.23005 250.124885 
L 95.23005 331.30224 
Q 95.23005 339.61824 100.81005 339.61824 
z
" clip-path="url(#p0e997178a0)" style="fill: #cccccc"/>
   </g>
   <g id="patch_5">
    <path d="M 63.61005 339.61824 
L 81.91245 339.61824 
Q 87.49245 339.61824 87.49245 331.30224 
L 87.49245 84.115192 
Q 87.49245 75.799192 81.91245 75.799192 
L 63.61005 75.799192 
Q 58.03005 75.799192 58.03005 84.115192 
L 58.03005 331.30224 
Q 58.03005 339.61824 63.61005 339.61824 
z
" clip-path="url(#p0e997178a0)" style="fill: #cccccc"/>
   </g>
   <g id="matplotlib.axis_1">
    <g id="xtick_1">
     <g id="line2d_1"/>
     <g id="text_1">
      <!-- gm -->
      <g transform="translate(60.533125 353.658438) scale(0.14 -0.14)">
       <defs>
        <path id="Montserrat-Regular-67" d="M 3315 3366 
L 3315 2720 
C 3034 3162 2547 3392 1984 3392 
C 1024 3392 294 2733 294 1766 
C 294 800 1024 128 1984 128 
C 2534 128 3014 352 3296 781 
L 3296 352 
C 3296 -480 2906 -870 2054 -870 
C 1536 -870 1050 -698 730 -410 
L 499 -755 
C 851 -1088 1453 -1274 2067 -1274 
C 3181 -1274 3750 -749 3750 410 
L 3750 3366 
L 3315 3366 
z
M 2029 531 
C 1286 531 755 1037 755 1766 
C 755 2496 1286 2995 2029 2995 
C 2771 2995 3309 2496 3309 1766 
C 3309 1037 2771 531 2029 531 
z
" transform="scale(0.015625)"/>
        <path id="Montserrat-Regular-6d" d="M 4832 3392 
C 4224 3392 3744 3117 3501 2682 
C 3296 3155 2861 3392 2304 3392 
C 1741 3392 1306 3155 1069 2752 
L 1069 3366 
L 634 3366 
L 634 0 
L 1088 0 
L 1088 1766 
C 1088 2534 1530 2982 2214 2982 
C 2829 2982 3187 2618 3187 1907 
L 3187 0 
L 3642 0 
L 3642 1766 
C 3642 2534 4077 2982 4768 2982 
C 5376 2982 5734 2618 5734 1907 
L 5734 0 
L 6189 0 
L 6189 1952 
C 6189 2918 5651 3392 4832 3392 
z
" transform="scale(0.015625)"/>
       </defs>
       <use xlink:href="#Montserrat-Regular-67"/>
       <use xlink:href="#Montserrat-Regular-6d" x="68.599991"/>
      </g>
     </g>
    </g>
    <g id="xtick_2">
     <g id="line2d_2"/>
     <g id="text_2">
      <!-- wm -->
      <g transform="translate(96.38125 353.728438) scale(0.14 -0.14)">
       <defs>
        <path id="Montserrat-Regular-77" d="M 5158 3366 
L 4090 506 
L 3014 3366 
L 2624 3366 
L 1542 506 
L 486 3366 
L 51 3366 
L 1318 0 
L 1747 0 
L 2810 2758 
L 3872 0 
L 4301 0 
L 5574 3366 
L 5158 3366 
z
" transform="scale(0.015625)"/>
       </defs>
       <use xlink:href="#Montserrat-Regular-77"/>
       <use xlink:href="#Montserrat-Regular-6d" x="87.899994"/>
      </g>
     </g>
    </g>
    <g id="xtick_3">
     <g id="line2d_3"/>
     <g id="text_3">
      <!-- csf -->
      <g transform="translate(137.423594 353.728438) scale(0.14 -0.14)">
       <defs>
        <path id="Montserrat-Regular-63" d="M 2029 -32 
C 2598 -32 3078 198 3347 634 
L 3008 864 
C 2778 525 2419 371 2029 371 
C 1293 371 755 890 755 1683 
C 755 2470 1293 2995 2029 2995 
C 2419 2995 2778 2835 3008 2496 
L 3347 2726 
C 3078 3168 2598 3392 2029 3392 
C 1024 3392 294 2688 294 1683 
C 294 678 1024 -32 2029 -32 
z
" transform="scale(0.015625)"/>
        <path id="Montserrat-Regular-73" d="M 1536 -32 
C 2413 -32 2925 346 2925 928 
C 2925 2221 742 1536 742 2445 
C 742 2765 1011 3002 1619 3002 
C 1965 3002 2317 2918 2611 2714 
L 2810 3078 
C 2528 3270 2054 3392 1619 3392 
C 762 3392 288 2982 288 2432 
C 288 1101 2470 1792 2470 915 
C 2470 582 2208 365 1568 365 
C 1094 365 640 531 371 742 
L 166 384 
C 442 147 979 -32 1536 -32 
z
" transform="scale(0.015625)"/>
        <path id="Montserrat-Regular-66" d="M 1747 4397 
C 1939 4397 2118 4339 2246 4230 
L 2400 4570 
C 2234 4710 1978 4781 1728 4781 
C 1069 4781 710 4384 710 3782 
L 710 3366 
L 109 3366 
L 109 2982 
L 710 2982 
L 710 0 
L 1165 0 
L 1165 2982 
L 2189 2982 
L 2189 3366 
L 1152 3366 
L 1152 3763 
C 1152 4179 1357 4397 1747 4397 
z
" transform="scale(0.015625)"/>
       </defs>
       <use xlink:href="#Montserrat-Regular-63"/>
       <use xlink:href="#Montserrat-Regular-73" x="56.299988"/>
       <use xlink:href="#Montserrat-Regular-66" x="105.199982"/>
      </g>
     </g>
    </g>
   </g>
   <g id="matplotlib.axis_2">
    <g id="ytick_1">
     <g id="line2d_4"/>
     <g id="text_4">
      <!-- 0 -->
      <g transform="translate(37.392813 345.034219) scale(0.14 -0.14)">
       <defs>
        <path id="Montserrat-Regular-30" d="M 2118 -38 
C 3155 -38 3910 813 3910 2240 
C 3910 3667 3155 4518 2118 4518 
C 1082 4518 333 3667 333 2240 
C 333 813 1082 -38 2118 -38 
z
M 2118 384 
C 1338 384 800 1043 800 2240 
C 800 3437 1338 4096 2118 4096 
C 2899 4096 3437 3437 3437 2240 
C 3437 1043 2899 384 2118 384 
z
" transform="scale(0.015625)"/>
       </defs>
       <use xlink:href="#Montserrat-Regular-30"/>
      </g>
     </g>
    </g>
    <g id="ytick_2">
     <g id="line2d_5"/>
     <g id="text_5">
      <!-- 10 -->
      <g transform="translate(32.339688 306.537004) scale(0.14 -0.14)">
       <defs>
        <path id="Montserrat-Regular-31" d="M 58 4480 
L 58 4070 
L 1114 4070 
L 1114 0 
L 1574 0 
L 1574 4480 
L 58 4480 
z
" transform="scale(0.015625)"/>
       </defs>
       <use xlink:href="#Montserrat-Regular-31"/>
       <use xlink:href="#Montserrat-Regular-30" x="36.099991"/>
      </g>
     </g>
    </g>
    <g id="ytick_3">
     <g id="line2d_6"/>
     <g id="text_6">
      <!-- 20 -->
      <g transform="translate(29.44125 268.039788) scale(0.14 -0.14)">
       <defs>
        <path id="Montserrat-Regular-32" d="M 928 410 
L 2451 1907 
C 3053 2496 3187 2880 3187 3309 
C 3187 4058 2611 4518 1702 4518 
C 1018 4518 461 4288 115 3878 
L 442 3597 
C 736 3936 1139 4096 1664 4096 
C 2349 4096 2714 3776 2714 3258 
C 2714 2950 2618 2650 2112 2150 
L 250 326 
L 250 0 
L 3392 0 
L 3392 410 
L 928 410 
z
" transform="scale(0.015625)"/>
       </defs>
       <use xlink:href="#Montserrat-Regular-32"/>
       <use xlink:href="#Montserrat-Regular-30" x="56.799988"/>
      </g>
     </g>
    </g>
    <g id="ytick_4">
     <g id="line2d_7"/>
     <g id="text_7">
      <!-- 30 -->
      <g transform="translate(29.495938 229.542573) scale(0.14 -0.14)">
       <defs>
        <path id="Montserrat-Regular-33" d="M 1856 2560 
L 3123 4154 
L 3123 4480 
L 243 4480 
L 243 4070 
L 2534 4070 
L 1293 2515 
L 1293 2176 
L 1613 2176 
C 2445 2176 2822 1824 2822 1286 
C 2822 730 2413 384 1670 384 
C 1088 384 570 602 282 902 
L 58 538 
C 403 186 1024 -38 1670 -38 
C 2752 -38 3296 538 3296 1286 
C 3296 2003 2816 2509 1856 2560 
z
" transform="scale(0.015625)"/>
       </defs>
       <use xlink:href="#Montserrat-Regular-33"/>
       <use xlink:href="#Montserrat-Regular-30" x="56.399994"/>
      </g>
     </g>
    </g>
    <g id="ytick_5">
     <g id="line2d_8"/>
     <g id="text_8">
      <!-- 40 -->
      <g transform="translate(28.139688 191.045358) scale(0.14 -0.14)">
       <defs>
        <path id="Montserrat-Regular-34" d="M 4141 1587 
L 3245 1587 
L 3245 2624 
L 2797 2624 
L 2797 1587 
L 851 1587 
L 3142 4480 
L 2630 4480 
L 256 1510 
L 256 1178 
L 2784 1178 
L 2784 0 
L 3245 0 
L 3245 1178 
L 4141 1178 
L 4141 1587 
z
" transform="scale(0.015625)"/>
       </defs>
       <use xlink:href="#Montserrat-Regular-34"/>
       <use xlink:href="#Montserrat-Regular-30" x="66.099991"/>
      </g>
     </g>
    </g>
    <g id="ytick_6">
     <g id="line2d_9"/>
     <g id="text_9">
      <!-- 50 -->
      <g transform="translate(29.469687 152.548143) scale(0.14 -0.14)">
       <defs>
        <path id="Montserrat-Regular-35" d="M 1510 2643 
L 934 2643 
L 1088 4070 
L 3136 4070 
L 3136 4480 
L 685 4480 
L 454 2234 
L 1408 2234 
C 2547 2234 2906 1875 2906 1299 
C 2906 755 2502 384 1741 384 
C 1165 384 653 602 365 902 
L 141 538 
C 486 186 1101 -38 1747 -38 
C 2842 -38 3373 557 3373 1318 
C 3373 2112 2861 2643 1510 2643 
z
" transform="scale(0.015625)"/>
       </defs>
       <use xlink:href="#Montserrat-Regular-35"/>
       <use xlink:href="#Montserrat-Regular-30" x="56.599991"/>
      </g>
     </g>
    </g>
    <g id="ytick_7">
     <g id="line2d_10"/>
     <g id="text_10">
      <!-- 60 -->
      <g transform="translate(28.865938 114.050928) scale(0.14 -0.14)">
       <defs>
        <path id="Montserrat-Regular-36" d="M 2189 2682 
C 1568 2682 1043 2406 819 1914 
C 806 2048 800 2176 800 2278 
C 800 3494 1421 4115 2387 4115 
C 2720 4115 3027 4058 3258 3904 
L 3443 4275 
C 3162 4448 2784 4518 2381 4518 
C 1165 4518 333 3725 333 2202 
C 333 787 979 -38 2170 -38 
C 3040 -38 3699 499 3699 1338 
C 3699 2157 3078 2682 2189 2682 
z
M 2150 352 
C 1376 352 966 819 966 1312 
C 966 1869 1434 2291 2118 2291 
C 2810 2291 3245 1914 3245 1325 
C 3245 730 2797 352 2150 352 
z
" transform="scale(0.015625)"/>
       </defs>
       <use xlink:href="#Montserrat-Regular-36"/>
       <use xlink:href="#Montserrat-Regular-30" x="60.899994"/>
      </g>
     </g>
    </g>
    <g id="ytick_8">
     <g id="line2d_11"/>
     <g id="text_11">
      <!-- 70 -->
      <g transform="translate(29.145938 75.553712) scale(0.14 -0.14)">
       <defs>
        <path id="Montserrat-Regular-37" d="M 205 4480 
L 205 3232 
L 659 3232 
L 659 4070 
L 2963 4070 
L 1120 0 
L 1619 0 
L 3494 4154 
L 3494 4480 
L 205 4480 
z
" transform="scale(0.015625)"/>
       </defs>
       <use xlink:href="#Montserrat-Regular-37"/>
       <use xlink:href="#Montserrat-Regular-30" x="58.899994"/>
      </g>
     </g>
    </g>
    <g id="ytick_9">
     <g id="line2d_12"/>
     <g id="text_12">
      <!-- 80 -->
      <g transform="translate(28.46125 37.056497) scale(0.14 -0.14)">
       <defs>
        <path id="Montserrat-Regular-38" d="M 2899 2349 
C 3360 2528 3616 2867 3616 3334 
C 3616 4064 2982 4518 2035 4518 
C 1088 4518 467 4064 467 3334 
C 467 2867 717 2528 1171 2349 
C 614 2163 307 1786 307 1248 
C 307 454 960 -38 2035 -38 
C 3104 -38 3776 454 3776 1248 
C 3776 1779 3462 2163 2899 2349 
z
M 928 3322 
C 928 3821 1357 4128 2035 4128 
C 2707 4128 3149 3821 3149 3315 
C 3149 2829 2733 2515 2035 2515 
C 1338 2515 928 2829 928 3322 
z
M 2035 352 
C 1242 352 774 698 774 1254 
C 774 1805 1242 2150 2035 2150 
C 2829 2150 3302 1805 3302 1254 
C 3302 698 2829 352 2035 352 
z
" transform="scale(0.015625)"/>
       </defs>
       <use xlink:href="#Montserrat-Regular-38"/>
       <use xlink:href="#Montserrat-Regular-30" x="63.799988"/>
      </g>
     </g>
    </g>
    <g id="text_13">
     <!-- percentage in ribbon -->
     <g transform="translate(20.556562 269.038125) rotate(-90) scale(0.18 -0.18)">
      <defs>
       <path id="Montserrat-Regular-70" d="M 2368 3392 
C 1811 3392 1344 3149 1069 2701 
L 1069 3366 
L 634 3366 
L 634 -1242 
L 1088 -1242 
L 1088 634 
C 1370 198 1830 -32 2368 -32 
C 3328 -32 4045 659 4045 1683 
C 4045 2701 3328 3392 2368 3392 
z
M 2336 371 
C 1619 371 1082 896 1082 1683 
C 1082 2464 1619 2995 2336 2995 
C 3046 2995 3590 2464 3590 1683 
C 3590 896 3046 371 2336 371 
z
" transform="scale(0.015625)"/>
       <path id="Montserrat-Regular-65" d="M 3571 1683 
C 3571 2694 2886 3392 1939 3392 
C 992 3392 294 2682 294 1683 
C 294 685 1011 -32 2061 -32 
C 2592 -32 3059 160 3360 518 
L 3104 813 
C 2848 518 2483 371 2074 371 
C 1338 371 800 838 749 1542 
L 3565 1542 
C 3565 1594 3571 1645 3571 1683 
z
M 1939 3002 
C 2598 3002 3078 2541 3136 1882 
L 749 1882 
C 806 2541 1286 3002 1939 3002 
z
" transform="scale(0.015625)"/>
       <path id="Montserrat-Regular-72" d="M 1069 2707 
L 1069 3366 
L 634 3366 
L 634 0 
L 1088 0 
L 1088 1715 
C 1088 2509 1517 2957 2221 2957 
C 2253 2957 2291 2950 2330 2950 
L 2330 3392 
C 1709 3392 1280 3155 1069 2707 
z
" transform="scale(0.015625)"/>
       <path id="Montserrat-Regular-6e" d="M 2349 3392 
C 1766 3392 1312 3155 1069 2746 
L 1069 3366 
L 634 3366 
L 634 0 
L 1088 0 
L 1088 1766 
C 1088 2534 1542 2982 2266 2982 
C 2906 2982 3277 2618 3277 1907 
L 3277 0 
L 3731 0 
L 3731 1952 
C 3731 2918 3168 3392 2349 3392 
z
" transform="scale(0.015625)"/>
       <path id="Montserrat-Regular-74" d="M 2246 531 
C 2118 416 1933 358 1747 358 
C 1370 358 1165 576 1165 973 
L 1165 2982 
L 2189 2982 
L 2189 3366 
L 1165 3366 
L 1165 4102 
L 710 4102 
L 710 3366 
L 109 3366 
L 109 2982 
L 710 2982 
L 710 947 
C 710 326 1062 -32 1696 -32 
C 1958 -32 2227 45 2406 205 
L 2246 531 
z
" transform="scale(0.015625)"/>
       <path id="Montserrat-Regular-61" d="M 1811 3392 
C 1280 3392 781 3226 442 2938 
L 646 2598 
C 922 2842 1331 2995 1766 2995 
C 2394 2995 2720 2682 2720 2106 
L 2720 1901 
L 1651 1901 
C 685 1901 352 1466 352 947 
C 352 365 819 -32 1581 -32 
C 2138 -32 2534 179 2739 525 
L 2739 0 
L 3174 0 
L 3174 2086 
C 3174 2957 2682 3392 1811 3392 
z
M 1651 326 
C 1114 326 800 570 800 960 
C 800 1306 1011 1562 1664 1562 
L 2720 1562 
L 2720 1011 
C 2541 570 2163 326 1651 326 
z
" transform="scale(0.015625)"/>
       <path id="Montserrat-Regular-20" transform="scale(0.015625)"/>
       <path id="Montserrat-Regular-69" d="M 864 4102 
C 1056 4102 1197 4250 1197 4435 
C 1197 4608 1050 4749 864 4749 
C 678 4749 531 4602 531 4429 
C 531 4250 678 4102 864 4102 
z
M 634 0 
L 1088 0 
L 1088 3366 
L 634 3366 
L 634 0 
z
" transform="scale(0.015625)"/>
       <path id="Montserrat-Regular-62" d="M 2368 3392 
C 1830 3392 1370 3162 1088 2726 
L 1088 4749 
L 634 4749 
L 634 0 
L 1069 0 
L 1069 666 
C 1344 211 1811 -32 2368 -32 
C 3328 -32 4045 666 4045 1683 
C 4045 2701 3328 3392 2368 3392 
z
M 2336 371 
C 1619 371 1082 896 1082 1683 
C 1082 2470 1619 2995 2336 2995 
C 3046 2995 3590 2470 3590 1683 
C 3590 896 3046 371 2336 371 
z
" transform="scale(0.015625)"/>
       <path id="Montserrat-Regular-6f" d="M 2010 -32 
C 2995 -32 3718 685 3718 1683 
C 3718 2682 2995 3392 2010 3392 
C 1024 3392 294 2682 294 1683 
C 294 685 1024 -32 2010 -32 
z
M 2010 371 
C 1293 371 755 896 755 1683 
C 755 2470 1293 2995 2010 2995 
C 2726 2995 3258 2470 3258 1683 
C 3258 896 2726 371 2010 371 
z
" transform="scale(0.015625)"/>
      </defs>
      <use xlink:href="#Montserrat-Regular-70"/>
      <use xlink:href="#Montserrat-Regular-65" x="67.799988"/>
      <use xlink:href="#Montserrat-Regular-72" x="128.199982"/>
      <use xlink:href="#Montserrat-Regular-63" x="168.299973"/>
      <use xlink:href="#Montserrat-Regular-65" x="224.59996"/>
      <use xlink:href="#Montserrat-Regular-6e" x="284.999954"/>
      <use xlink:href="#Montserrat-Regular-74" x="352.699936"/>
      <use xlink:href="#Montserrat-Regular-61" x="393.299927"/>
      <use xlink:href="#Montserrat-Regular-67" x="452.299911"/>
      <use xlink:href="#Montserrat-Regular-65" x="520.899902"/>
      <use xlink:href="#Montserrat-Regular-20" x="581.299896"/>
      <use xlink:href="#Montserrat-Regular-69" x="607.499893"/>
      <use xlink:href="#Montserrat-Regular-6e" x="634.399887"/>
      <use xlink:href="#Montserrat-Regular-20" x="702.099869"/>
      <use xlink:href="#Montserrat-Regular-72" x="728.299866"/>
      <use xlink:href="#Montserrat-Regular-69" x="768.399857"/>
      <use xlink:href="#Montserrat-Regular-62" x="795.29985"/>
      <use xlink:href="#Montserrat-Regular-62" x="863.099838"/>
      <use xlink:href="#Montserrat-Regular-6f" x="930.899826"/>
      <use xlink:href="#Montserrat-Regular-6e" x="993.599823"/>
     </g>
    </g>
   </g>
   <g id="LineCollection_1">
    <path d="M 72.76125 98.034141 
L 72.76125 53.120723 
" clip-path="url(#p0e997178a0)" style="fill: none; stroke: #000000; stroke-width: 1.5"/>
    <path d="M 109.96125 255.090314 
L 109.96125 228.083935 
" clip-path="url(#p0e997178a0)" style="fill: none; stroke: #000000; stroke-width: 1.5"/>
    <path d="M 147.16125 341.060429 
L 147.16125 293.706154 
" clip-path="url(#p0e997178a0)" style="fill: none; stroke: #000000; stroke-width: 1.5"/>
   </g>
   <g id="patch_6">
    <path d="M 50.16125 339.84 
L 50.16125 7.2 
" style="fill: none; stroke: #000000; stroke-width: 0.5; stroke-linejoin: miter; stroke-linecap: square"/>
   </g>
   <g id="PathCollection_7">
    <defs>
     <path id="C0_0_3cb8a77e00" d="M 0 2.5 
C 0.663008 2.5 1.29895 2.236584 1.767767 1.767767 
C 2.236584 1.29895 2.5 0.663008 2.5 -0 
C 2.5 -0.663008 2.236584 -1.29895 1.767767 -1.767767 
C 1.29895 -2.236584 0.663008 -2.5 0 -2.5 
C -0.663008 -2.5 -1.29895 -2.236584 -1.767767 -1.767767 
C -2.236584 -1.29895 -2.5 -0.663008 -2.5 0 
C -2.5 0.663008 -2.236584 1.29895 -1.767767 1.767767 
C -1.29895 2.236584 -0.663008 2.5 0 2.5 
z
"/>
    </defs>
    <g clip-path="url(#p0e997178a0)">
     <use xlink:href="#C0_0_3cb8a77e00" x="71.73622" y="78.608897" style="fill: #66c2a5"/>
    </g>
    <g clip-path="url(#p0e997178a0)">
     <use xlink:href="#C0_0_3cb8a77e00" x="76.406215" y="123.293165" style="fill: #fc8d62"/>
    </g>
    <g clip-path="url(#p0e997178a0)">
     <use xlink:href="#C0_0_3cb8a77e00" x="74.164332" y="78.179241" style="fill: #8da0cb"/>
    </g>
    <g clip-path="url(#p0e997178a0)">
     <use xlink:href="#C0_0_3cb8a77e00" x="71.486145" y="23.04" style="fill: #e78ac3"/>
    </g>
    <g clip-path="url(#p0e997178a0)">
     <use xlink:href="#C0_0_3cb8a77e00" x="70.89193" y="60.73519" style="fill: #a6d854"/>
    </g>
    <g clip-path="url(#p0e997178a0)">
     <use xlink:href="#C0_0_3cb8a77e00" x="73.944633" y="89.608101" style="fill: #ffd92f"/>
    </g>
   </g>
   <g id="PathCollection_8">
    <defs>
     <path id="C1_0_d332a4eda4" d="M 0 2.5 
C 0.663008 2.5 1.29895 2.236584 1.767767 1.767767 
C 2.236584 1.29895 2.5 0.663008 2.5 -0 
C 2.5 -0.663008 2.236584 -1.29895 1.767767 -1.767767 
C 1.29895 -2.236584 0.663008 -2.5 0 -2.5 
C -0.663008 -2.5 -1.29895 -2.236584 -1.767767 -1.767767 
C -2.236584 -1.29895 -2.5 -0.663008 -2.5 0 
C -2.5 0.663008 -2.236584 1.29895 -1.767767 1.767767 
C -1.29895 2.236584 -0.663008 2.5 0 2.5 
z
"/>
    </defs>
    <g clip-path="url(#p0e997178a0)">
     <use xlink:href="#C1_0_d332a4eda4" x="106.749881" y="216.098951" style="fill: #66c2a5"/>
    </g>
    <g clip-path="url(#p0e997178a0)">
     <use xlink:href="#C1_0_d332a4eda4" x="108.561834" y="171.414684" style="fill: #fc8d62"/>
    </g>
    <g clip-path="url(#p0e997178a0)">
     <use xlink:href="#C1_0_d332a4eda4" x="113.046867" y="216.528608" style="fill: #8da0cb"/>
    </g>
    <g clip-path="url(#p0e997178a0)">
     <use xlink:href="#C1_0_d332a4eda4" x="112.008067" y="271.667848" style="fill: #e78ac3"/>
    </g>
    <g clip-path="url(#p0e997178a0)">
     <use xlink:href="#C1_0_d332a4eda4" x="106.366928" y="233.972658" style="fill: #a6d854"/>
    </g>
    <g clip-path="url(#p0e997178a0)">
     <use xlink:href="#C1_0_d332a4eda4" x="106.459902" y="339.84" style="fill: #ffd92f"/>
    </g>
   </g>
   <g id="PathCollection_9">
    <defs>
     <path id="C2_0_a4c44761c2" d="M 0 2.5 
C 0.663008 2.5 1.29895 2.236584 1.767767 1.767767 
C 2.236584 1.29895 2.5 0.663008 2.5 -0 
C 2.5 -0.663008 2.236584 -1.29895 1.767767 -1.767767 
C 1.29895 -2.236584 0.663008 -2.5 0 -2.5 
C -0.663008 -2.5 -1.29895 -2.236584 -1.767767 -1.767767 
C -2.236584 -1.29895 -2.5 -0.663008 -2.5 0 
C -2.5 0.663008 -2.236584 1.29895 -1.767767 1.767767 
C -1.29895 2.236584 -0.663008 2.5 0 2.5 
z
"/>
    </defs>
    <g clip-path="url(#p0e997178a0)">
     <use xlink:href="#C2_0_a4c44761c2" x="146.253838" y="339.84" style="fill: #66c2a5"/>
    </g>
    <g clip-path="url(#p0e997178a0)">
     <use xlink:href="#C2_0_a4c44761c2" x="143.521474" y="339.84" style="fill: #fc8d62"/>
    </g>
    <g clip-path="url(#p0e997178a0)">
     <use xlink:href="#C2_0_a4c44761c2" x="148.775243" y="339.84" style="fill: #8da0cb"/>
    </g>
    <g clip-path="url(#p0e997178a0)">
     <use xlink:href="#C2_0_a4c44761c2" x="146.491735" y="339.84" style="fill: #e78ac3"/>
    </g>
    <g clip-path="url(#p0e997178a0)">
     <use xlink:href="#C2_0_a4c44761c2" x="145.637369" y="339.84" style="fill: #a6d854"/>
    </g>
    <g clip-path="url(#p0e997178a0)">
     <use xlink:href="#C2_0_a4c44761c2" x="145.105553" y="205.099747" style="fill: #ffd92f"/>
    </g>
   </g>
   <g id="legend_1"/>
  </g>
 </g>
 <defs>
  <clipPath id="p0e997178a0">
   <rect x="54.16125" y="7.2" width="111.6" height="332.64"/>
  </clipPath>
 </defs>
</svg>
