<?xml version="1.0" encoding="utf-8" standalone="no"?>
<!DOCTYPE svg PUBLIC "-//W3C//DTD SVG 1.1//EN"
  "http://www.w3.org/Graphics/SVG/1.1/DTD/svg11.dtd">
<svg height="470.219687pt" version="1.1" viewBox="0 0 297.813438 470.219687" width="297.813438pt" xmlns="http://www.w3.org/2000/svg" xmlns:xlink="http://www.w3.org/1999/xlink">
 <metadata>
  <rdf:RDF xmlns:cc="http://creativecommons.org/ns#" xmlns:dc="http://purl.org/dc/elements/1.1/" xmlns:rdf="http://www.w3.org/1999/02/22-rdf-syntax-ns#">
   <cc:Work>
    <dc:type rdf:resource="http://purl.org/dc/dcmitype/StillImage"/>
    <dc:date>2022-11-06T13:01:15.511522</dc:date>
    <dc:format>image/svg+xml</dc:format>
    <dc:creator>
     <cc:Agent>
      <dc:title>Matplotlib v3.4.3, https://matplotlib.org/</dc:title>
     </cc:Agent>
    </dc:creator>
   </cc:Work>
  </rdf:RDF>
 </metadata>
 <defs>
  <style type="text/css">*{stroke-linecap:butt;stroke-linejoin:round;}</style>
 </defs>
 <g id="figure_1">
  <g id="patch_1">
   <path d="M 0 470.219687 
L 297.813438 470.219687 
L 297.813438 0 
L 0 0 
z
" style="fill:#ffffff;"/>
  </g>
  <g id="axes_1">
   <g id="patch_2">
    <path d="M 67.413438 442.08 
L 290.613437 442.08 
L 290.613437 7.2 
L 67.413438 7.2 
z
" style="fill:#ffffff;"/>
   </g>
   <g id="patch_3">
    <path clip-path="url(#pd18b9e09d8)" d="M 259.543997 441.862088 
L 277.042878 441.862088 
Q 285.970878 441.862088 285.970878 430.966495 
L 285.970878 135.23864 
Q 285.970878 124.343046 277.042878 124.343046 
L 259.543997 124.343046 
Q 250.615997 124.343046 250.615997 135.23864 
L 250.615997 430.966495 
Q 250.615997 441.862088 259.543997 441.862088 
z
" style="fill:#f3d7b1;"/>
   </g>
   <g id="patch_4">
    <path clip-path="url(#pd18b9e09d8)" d="M 214.903998 441.862088 
L 232.402877 441.862088 
Q 241.330878 441.862088 241.330878 430.966495 
L 241.330878 376.136131 
Q 241.330878 365.240537 232.402877 365.240537 
L 214.903998 365.240537 
Q 205.975998 365.240537 205.975998 376.136131 
L 205.975998 430.966495 
Q 205.975998 441.862088 214.903998 441.862088 
z
" style="fill:#dccee1;"/>
   </g>
   <g id="patch_5">
    <path clip-path="url(#pd18b9e09d8)" d="M 170.263998 441.862088 
L 187.762878 441.862088 
Q 196.690877 441.862088 196.690877 430.966495 
L 196.690877 39.022077 
Q 196.690877 28.126483 187.762878 28.126483 
L 170.263998 28.126483 
Q 161.335998 28.126483 161.335998 39.022077 
L 161.335998 430.966495 
Q 161.335998 441.862088 170.263998 441.862088 
z
" style="fill:#cfe6ca;"/>
   </g>
   <g id="patch_6">
    <path clip-path="url(#pd18b9e09d8)" d="M 125.623998 441.862088 
L 143.122878 441.862088 
Q 152.050877 441.862088 152.050877 430.966495 
L 152.050877 106.202815 
Q 152.050877 95.307222 143.122878 95.307222 
L 125.623998 95.307222 
Q 116.695998 95.307222 116.695998 106.202815 
L 116.695998 430.966495 
Q 116.695998 441.862088 125.623998 441.862088 
z
" style="fill:#b9ccdd;"/>
   </g>
   <g id="patch_7">
    <path clip-path="url(#pd18b9e09d8)" d="M 80.983998 441.862088 
L 98.482878 441.862088 
Q 107.410877 441.862088 107.410877 430.966495 
L 107.410877 190.40621 
Q 107.410877 179.510617 98.482878 179.510617 
L 80.983998 179.510617 
Q 72.055998 179.510617 72.055998 190.40621 
L 72.055998 430.966495 
Q 72.055998 441.862088 80.983998 441.862088 
z
" style="fill:#f1bcb8;"/>
   </g>
   <g id="matplotlib.axis_1">
    <g id="text_1">
     <!-- subjects -->
     <g transform="translate(141.428594 459.436562)scale(0.18 -0.18)">
      <defs>
       <path d="M 1536 -32 
C 2413 -32 2925 346 2925 928 
C 2925 2221 742 1536 742 2445 
C 742 2765 1011 3002 1619 3002 
C 1965 3002 2317 2918 2611 2714 
L 2810 3078 
C 2528 3270 2054 3392 1619 3392 
C 762 3392 288 2982 288 2432 
C 288 1101 2470 1792 2470 915 
C 2470 582 2208 365 1568 365 
C 1094 365 640 531 371 742 
L 166 384 
C 442 147 979 -32 1536 -32 
z
" id="Montserrat-Regular-73" transform="scale(0.015625)"/>
       <path d="M 3213 3366 
L 3213 1600 
C 3213 832 2771 378 2067 378 
C 1427 378 1056 742 1056 1459 
L 1056 3366 
L 602 3366 
L 602 1414 
C 602 448 1165 -32 2022 -32 
C 2560 -32 2995 205 3232 614 
L 3232 0 
L 3667 0 
L 3667 3366 
L 3213 3366 
z
" id="Montserrat-Regular-75" transform="scale(0.015625)"/>
       <path d="M 2368 3392 
C 1830 3392 1370 3162 1088 2726 
L 1088 4749 
L 634 4749 
L 634 0 
L 1069 0 
L 1069 666 
C 1344 211 1811 -32 2368 -32 
C 3328 -32 4045 666 4045 1683 
C 4045 2701 3328 3392 2368 3392 
z
M 2336 371 
C 1619 371 1082 896 1082 1683 
C 1082 2470 1619 2995 2336 2995 
C 3046 2995 3590 2470 3590 1683 
C 3590 896 3046 371 2336 371 
z
" id="Montserrat-Regular-62" transform="scale(0.015625)"/>
       <path d="M 896 4102 
C 1088 4102 1229 4250 1229 4435 
C 1229 4608 1082 4749 896 4749 
C 710 4749 563 4602 563 4429 
C 563 4250 710 4102 896 4102 
z
M 134 -1274 
C 774 -1274 1120 -870 1120 -250 
L 1120 3366 
L 666 3366 
L 666 -250 
C 666 -666 467 -883 109 -883 
C -102 -883 -282 -826 -416 -710 
L -576 -1056 
C -410 -1203 -134 -1274 134 -1274 
z
" id="Montserrat-Regular-6a" transform="scale(0.015625)"/>
       <path d="M 3571 1683 
C 3571 2694 2886 3392 1939 3392 
C 992 3392 294 2682 294 1683 
C 294 685 1011 -32 2061 -32 
C 2592 -32 3059 160 3360 518 
L 3104 813 
C 2848 518 2483 371 2074 371 
C 1338 371 800 838 749 1542 
L 3565 1542 
C 3565 1594 3571 1645 3571 1683 
z
M 1939 3002 
C 2598 3002 3078 2541 3136 1882 
L 749 1882 
C 806 2541 1286 3002 1939 3002 
z
" id="Montserrat-Regular-65" transform="scale(0.015625)"/>
       <path d="M 2029 -32 
C 2598 -32 3078 198 3347 634 
L 3008 864 
C 2778 525 2419 371 2029 371 
C 1293 371 755 890 755 1683 
C 755 2470 1293 2995 2029 2995 
C 2419 2995 2778 2835 3008 2496 
L 3347 2726 
C 3078 3168 2598 3392 2029 3392 
C 1024 3392 294 2688 294 1683 
C 294 678 1024 -32 2029 -32 
z
" id="Montserrat-Regular-63" transform="scale(0.015625)"/>
       <path d="M 2246 531 
C 2118 416 1933 358 1747 358 
C 1370 358 1165 576 1165 973 
L 1165 2982 
L 2189 2982 
L 2189 3366 
L 1165 3366 
L 1165 4102 
L 710 4102 
L 710 3366 
L 109 3366 
L 109 2982 
L 710 2982 
L 710 947 
C 710 326 1062 -32 1696 -32 
C 1958 -32 2227 45 2406 205 
L 2246 531 
z
" id="Montserrat-Regular-74" transform="scale(0.015625)"/>
      </defs>
      <use xlink:href="#Montserrat-Regular-73"/>
      <use x="48.899994" xlink:href="#Montserrat-Regular-75"/>
      <use x="116.199982" xlink:href="#Montserrat-Regular-62"/>
      <use x="183.999969" xlink:href="#Montserrat-Regular-6a"/>
      <use x="211.399963" xlink:href="#Montserrat-Regular-65"/>
      <use x="271.799957" xlink:href="#Montserrat-Regular-63"/>
      <use x="328.099945" xlink:href="#Montserrat-Regular-74"/>
      <use x="368.699936" xlink:href="#Montserrat-Regular-73"/>
     </g>
    </g>
   </g>
   <g id="matplotlib.axis_2">
    <g id="ytick_1">
     <g id="line2d_1"/>
     <g id="text_2">
      <!-- 0.00 -->
      <g transform="translate(28.139688 447.274219)scale(0.14 -0.14)">
       <defs>
        <path d="M 2118 -38 
C 3155 -38 3910 813 3910 2240 
C 3910 3667 3155 4518 2118 4518 
C 1082 4518 333 3667 333 2240 
C 333 813 1082 -38 2118 -38 
z
M 2118 384 
C 1338 384 800 1043 800 2240 
C 800 3437 1338 4096 2118 4096 
C 2899 4096 3437 3437 3437 2240 
C 3437 1043 2899 384 2118 384 
z
" id="Montserrat-Regular-30" transform="scale(0.015625)"/>
        <path d="M 678 -32 
C 864 -32 1024 122 1024 320 
C 1024 518 864 666 678 666 
C 493 666 339 518 339 320 
C 339 122 493 -32 678 -32 
z
" id="Montserrat-Regular-2e" transform="scale(0.015625)"/>
       </defs>
       <use xlink:href="#Montserrat-Regular-30"/>
       <use x="66.199997" xlink:href="#Montserrat-Regular-2e"/>
       <use x="87.399994" xlink:href="#Montserrat-Regular-30"/>
       <use x="153.599991" xlink:href="#Montserrat-Regular-30"/>
      </g>
     </g>
    </g>
    <g id="ytick_2">
     <g id="line2d_2"/>
     <g id="text_3">
      <!-- 0.01 -->
      <g transform="translate(32.355 392.796252)scale(0.14 -0.14)">
       <defs>
        <path d="M 58 4480 
L 58 4070 
L 1114 4070 
L 1114 0 
L 1574 0 
L 1574 4480 
L 58 4480 
z
" id="Montserrat-Regular-31" transform="scale(0.015625)"/>
       </defs>
       <use xlink:href="#Montserrat-Regular-30"/>
       <use x="66.199997" xlink:href="#Montserrat-Regular-2e"/>
       <use x="87.399994" xlink:href="#Montserrat-Regular-30"/>
       <use x="153.599991" xlink:href="#Montserrat-Regular-31"/>
      </g>
     </g>
    </g>
    <g id="ytick_3">
     <g id="line2d_3"/>
     <g id="text_4">
      <!-- 0.02 -->
      <g transform="translate(29.456563 338.318285)scale(0.14 -0.14)">
       <defs>
        <path d="M 928 410 
L 2451 1907 
C 3053 2496 3187 2880 3187 3309 
C 3187 4058 2611 4518 1702 4518 
C 1018 4518 461 4288 115 3878 
L 442 3597 
C 736 3936 1139 4096 1664 4096 
C 2349 4096 2714 3776 2714 3258 
C 2714 2950 2618 2650 2112 2150 
L 250 326 
L 250 0 
L 3392 0 
L 3392 410 
L 928 410 
z
" id="Montserrat-Regular-32" transform="scale(0.015625)"/>
       </defs>
       <use xlink:href="#Montserrat-Regular-30"/>
       <use x="66.199997" xlink:href="#Montserrat-Regular-2e"/>
       <use x="87.399994" xlink:href="#Montserrat-Regular-30"/>
       <use x="153.599991" xlink:href="#Montserrat-Regular-32"/>
      </g>
     </g>
    </g>
    <g id="ytick_4">
     <g id="line2d_4"/>
     <g id="text_5">
      <!-- 0.03 -->
      <g transform="translate(29.51125 283.840318)scale(0.14 -0.14)">
       <defs>
        <path d="M 1856 2560 
L 3123 4154 
L 3123 4480 
L 243 4480 
L 243 4070 
L 2534 4070 
L 1293 2515 
L 1293 2176 
L 1613 2176 
C 2445 2176 2822 1824 2822 1286 
C 2822 730 2413 384 1670 384 
C 1088 384 570 602 282 902 
L 58 538 
C 403 186 1024 -38 1670 -38 
C 2752 -38 3296 538 3296 1286 
C 3296 2003 2816 2509 1856 2560 
z
" id="Montserrat-Regular-33" transform="scale(0.015625)"/>
       </defs>
       <use xlink:href="#Montserrat-Regular-30"/>
       <use x="66.199997" xlink:href="#Montserrat-Regular-2e"/>
       <use x="87.399994" xlink:href="#Montserrat-Regular-30"/>
       <use x="153.599991" xlink:href="#Montserrat-Regular-33"/>
      </g>
     </g>
    </g>
    <g id="ytick_5">
     <g id="line2d_5"/>
     <g id="text_6">
      <!-- 0.04 -->
      <g transform="translate(28.155 229.362351)scale(0.14 -0.14)">
       <defs>
        <path d="M 4141 1587 
L 3245 1587 
L 3245 2624 
L 2797 2624 
L 2797 1587 
L 851 1587 
L 3142 4480 
L 2630 4480 
L 256 1510 
L 256 1178 
L 2784 1178 
L 2784 0 
L 3245 0 
L 3245 1178 
L 4141 1178 
L 4141 1587 
z
" id="Montserrat-Regular-34" transform="scale(0.015625)"/>
       </defs>
       <use xlink:href="#Montserrat-Regular-30"/>
       <use x="66.199997" xlink:href="#Montserrat-Regular-2e"/>
       <use x="87.399994" xlink:href="#Montserrat-Regular-30"/>
       <use x="153.599991" xlink:href="#Montserrat-Regular-34"/>
      </g>
     </g>
    </g>
    <g id="ytick_6">
     <g id="line2d_6"/>
     <g id="text_7">
      <!-- 0.05 -->
      <g transform="translate(29.485 174.884384)scale(0.14 -0.14)">
       <defs>
        <path d="M 1510 2643 
L 934 2643 
L 1088 4070 
L 3136 4070 
L 3136 4480 
L 685 4480 
L 454 2234 
L 1408 2234 
C 2547 2234 2906 1875 2906 1299 
C 2906 755 2502 384 1741 384 
C 1165 384 653 602 365 902 
L 141 538 
C 486 186 1101 -38 1747 -38 
C 2842 -38 3373 557 3373 1318 
C 3373 2112 2861 2643 1510 2643 
z
" id="Montserrat-Regular-35" transform="scale(0.015625)"/>
       </defs>
       <use xlink:href="#Montserrat-Regular-30"/>
       <use x="66.199997" xlink:href="#Montserrat-Regular-2e"/>
       <use x="87.399994" xlink:href="#Montserrat-Regular-30"/>
       <use x="153.599991" xlink:href="#Montserrat-Regular-35"/>
      </g>
     </g>
    </g>
    <g id="ytick_7">
     <g id="line2d_7"/>
     <g id="text_8">
      <!-- 0.06 -->
      <g transform="translate(28.88125 120.406417)scale(0.14 -0.14)">
       <defs>
        <path d="M 2189 2682 
C 1568 2682 1043 2406 819 1914 
C 806 2048 800 2176 800 2278 
C 800 3494 1421 4115 2387 4115 
C 2720 4115 3027 4058 3258 3904 
L 3443 4275 
C 3162 4448 2784 4518 2381 4518 
C 1165 4518 333 3725 333 2202 
C 333 787 979 -38 2170 -38 
C 3040 -38 3699 499 3699 1338 
C 3699 2157 3078 2682 2189 2682 
z
M 2150 352 
C 1376 352 966 819 966 1312 
C 966 1869 1434 2291 2118 2291 
C 2810 2291 3245 1914 3245 1325 
C 3245 730 2797 352 2150 352 
z
" id="Montserrat-Regular-36" transform="scale(0.015625)"/>
       </defs>
       <use xlink:href="#Montserrat-Regular-30"/>
       <use x="66.199997" xlink:href="#Montserrat-Regular-2e"/>
       <use x="87.399994" xlink:href="#Montserrat-Regular-30"/>
       <use x="153.599991" xlink:href="#Montserrat-Regular-36"/>
      </g>
     </g>
    </g>
    <g id="ytick_8">
     <g id="line2d_8"/>
     <g id="text_9">
      <!-- 0.07 -->
      <g transform="translate(29.16125 65.92845)scale(0.14 -0.14)">
       <defs>
        <path d="M 205 4480 
L 205 3232 
L 659 3232 
L 659 4070 
L 2963 4070 
L 1120 0 
L 1619 0 
L 3494 4154 
L 3494 4480 
L 205 4480 
z
" id="Montserrat-Regular-37" transform="scale(0.015625)"/>
       </defs>
       <use xlink:href="#Montserrat-Regular-30"/>
       <use x="66.199997" xlink:href="#Montserrat-Regular-2e"/>
       <use x="87.399994" xlink:href="#Montserrat-Regular-30"/>
       <use x="153.599991" xlink:href="#Montserrat-Regular-37"/>
      </g>
     </g>
    </g>
    <g id="text_10">
     <!-- FWHM of anatomical spread (mm) -->
     <g transform="translate(20.646563 381.133125)rotate(-90)scale(0.18 -0.18)">
      <defs>
       <path d="M 3802 4070 
L 3802 4480 
L 730 4480 
L 730 0 
L 1203 0 
L 1203 1901 
L 3520 1901 
L 3520 2310 
L 1203 2310 
L 1203 4070 
L 3802 4070 
z
" id="Montserrat-Regular-46" transform="scale(0.015625)"/>
       <path d="M 6426 4480 
L 5114 608 
L 3795 4480 
L 3354 4480 
L 2016 627 
L 723 4480 
L 237 4480 
L 1747 0 
L 2240 0 
L 3558 3821 
L 4870 0 
L 5370 0 
L 6880 4480 
L 6426 4480 
z
" id="Montserrat-Regular-57" transform="scale(0.015625)"/>
       <path d="M 4006 4480 
L 4006 2483 
L 1203 2483 
L 1203 4480 
L 730 4480 
L 730 0 
L 1203 0 
L 1203 2067 
L 4006 2067 
L 4006 0 
L 4474 0 
L 4474 4480 
L 4006 4480 
z
" id="Montserrat-Regular-48" transform="scale(0.015625)"/>
       <path d="M 4992 4480 
L 3066 1158 
L 1120 4480 
L 730 4480 
L 730 0 
L 1184 0 
L 1184 3565 
L 2944 570 
L 3168 570 
L 4928 3584 
L 4928 0 
L 5382 0 
L 5382 4480 
L 4992 4480 
z
" id="Montserrat-Regular-4d" transform="scale(0.015625)"/>
       <path id="Montserrat-Regular-20" transform="scale(0.015625)"/>
       <path d="M 2010 -32 
C 2995 -32 3718 685 3718 1683 
C 3718 2682 2995 3392 2010 3392 
C 1024 3392 294 2682 294 1683 
C 294 685 1024 -32 2010 -32 
z
M 2010 371 
C 1293 371 755 896 755 1683 
C 755 2470 1293 2995 2010 2995 
C 2726 2995 3258 2470 3258 1683 
C 3258 896 2726 371 2010 371 
z
" id="Montserrat-Regular-6f" transform="scale(0.015625)"/>
       <path d="M 1747 4397 
C 1939 4397 2118 4339 2246 4230 
L 2400 4570 
C 2234 4710 1978 4781 1728 4781 
C 1069 4781 710 4384 710 3782 
L 710 3366 
L 109 3366 
L 109 2982 
L 710 2982 
L 710 0 
L 1165 0 
L 1165 2982 
L 2189 2982 
L 2189 3366 
L 1152 3366 
L 1152 3763 
C 1152 4179 1357 4397 1747 4397 
z
" id="Montserrat-Regular-66" transform="scale(0.015625)"/>
       <path d="M 1811 3392 
C 1280 3392 781 3226 442 2938 
L 646 2598 
C 922 2842 1331 2995 1766 2995 
C 2394 2995 2720 2682 2720 2106 
L 2720 1901 
L 1651 1901 
C 685 1901 352 1466 352 947 
C 352 365 819 -32 1581 -32 
C 2138 -32 2534 179 2739 525 
L 2739 0 
L 3174 0 
L 3174 2086 
C 3174 2957 2682 3392 1811 3392 
z
M 1651 326 
C 1114 326 800 570 800 960 
C 800 1306 1011 1562 1664 1562 
L 2720 1562 
L 2720 1011 
C 2541 570 2163 326 1651 326 
z
" id="Montserrat-Regular-61" transform="scale(0.015625)"/>
       <path d="M 2349 3392 
C 1766 3392 1312 3155 1069 2746 
L 1069 3366 
L 634 3366 
L 634 0 
L 1088 0 
L 1088 1766 
C 1088 2534 1542 2982 2266 2982 
C 2906 2982 3277 2618 3277 1907 
L 3277 0 
L 3731 0 
L 3731 1952 
C 3731 2918 3168 3392 2349 3392 
z
" id="Montserrat-Regular-6e" transform="scale(0.015625)"/>
       <path d="M 4832 3392 
C 4224 3392 3744 3117 3501 2682 
C 3296 3155 2861 3392 2304 3392 
C 1741 3392 1306 3155 1069 2752 
L 1069 3366 
L 634 3366 
L 634 0 
L 1088 0 
L 1088 1766 
C 1088 2534 1530 2982 2214 2982 
C 2829 2982 3187 2618 3187 1907 
L 3187 0 
L 3642 0 
L 3642 1766 
C 3642 2534 4077 2982 4768 2982 
C 5376 2982 5734 2618 5734 1907 
L 5734 0 
L 6189 0 
L 6189 1952 
C 6189 2918 5651 3392 4832 3392 
z
" id="Montserrat-Regular-6d" transform="scale(0.015625)"/>
       <path d="M 864 4102 
C 1056 4102 1197 4250 1197 4435 
C 1197 4608 1050 4749 864 4749 
C 678 4749 531 4602 531 4429 
C 531 4250 678 4102 864 4102 
z
M 634 0 
L 1088 0 
L 1088 3366 
L 634 3366 
L 634 0 
z
" id="Montserrat-Regular-69" transform="scale(0.015625)"/>
       <path d="M 634 0 
L 1088 0 
L 1088 4749 
L 634 4749 
L 634 0 
z
" id="Montserrat-Regular-6c" transform="scale(0.015625)"/>
       <path d="M 2368 3392 
C 1811 3392 1344 3149 1069 2701 
L 1069 3366 
L 634 3366 
L 634 -1242 
L 1088 -1242 
L 1088 634 
C 1370 198 1830 -32 2368 -32 
C 3328 -32 4045 659 4045 1683 
C 4045 2701 3328 3392 2368 3392 
z
M 2336 371 
C 1619 371 1082 896 1082 1683 
C 1082 2464 1619 2995 2336 2995 
C 3046 2995 3590 2464 3590 1683 
C 3590 896 3046 371 2336 371 
z
" id="Montserrat-Regular-70" transform="scale(0.015625)"/>
       <path d="M 1069 2707 
L 1069 3366 
L 634 3366 
L 634 0 
L 1088 0 
L 1088 1715 
C 1088 2509 1517 2957 2221 2957 
C 2253 2957 2291 2950 2330 2950 
L 2330 3392 
C 1709 3392 1280 3155 1069 2707 
z
" id="Montserrat-Regular-72" transform="scale(0.015625)"/>
       <path d="M 3251 4749 
L 3251 2726 
C 2970 3162 2509 3392 1971 3392 
C 1011 3392 294 2701 294 1683 
C 294 666 1011 -32 1971 -32 
C 2528 -32 2995 211 3270 666 
L 3270 0 
L 3706 0 
L 3706 4749 
L 3251 4749 
z
M 2010 371 
C 1293 371 755 896 755 1683 
C 755 2470 1293 2995 2010 2995 
C 2720 2995 3258 2470 3258 1683 
C 3258 896 2720 371 2010 371 
z
" id="Montserrat-Regular-64" transform="scale(0.015625)"/>
       <path d="M 1408 -1242 
L 1843 -1242 
C 1338 -365 1114 614 1114 1754 
C 1114 2893 1338 3872 1843 4749 
L 1408 4749 
C 934 3987 666 2931 666 1754 
C 666 576 934 -467 1408 -1242 
z
" id="Montserrat-Regular-28" transform="scale(0.015625)"/>
       <path d="M 691 -1242 
C 1171 -467 1440 576 1440 1754 
C 1440 2931 1171 3987 691 4749 
L 256 4749 
C 768 3872 992 2893 992 1754 
C 992 614 768 -365 256 -1242 
L 691 -1242 
z
" id="Montserrat-Regular-29" transform="scale(0.015625)"/>
      </defs>
      <use xlink:href="#Montserrat-Regular-46"/>
      <use x="63.299988" xlink:href="#Montserrat-Regular-57"/>
      <use x="174.399979" xlink:href="#Montserrat-Regular-48"/>
      <use x="255.699966" xlink:href="#Montserrat-Regular-4d"/>
      <use x="351.199951" xlink:href="#Montserrat-Regular-20"/>
      <use x="377.399948" xlink:href="#Montserrat-Regular-6f"/>
      <use x="440.099945" xlink:href="#Montserrat-Regular-66"/>
      <use x="473.999939" xlink:href="#Montserrat-Regular-20"/>
      <use x="500.199936" xlink:href="#Montserrat-Regular-61"/>
      <use x="559.199921" xlink:href="#Montserrat-Regular-6e"/>
      <use x="626.899902" xlink:href="#Montserrat-Regular-61"/>
      <use x="685.899887" xlink:href="#Montserrat-Regular-74"/>
      <use x="726.499878" xlink:href="#Montserrat-Regular-6f"/>
      <use x="789.199875" xlink:href="#Montserrat-Regular-6d"/>
      <use x="895.299866" xlink:href="#Montserrat-Regular-69"/>
      <use x="922.19986" xlink:href="#Montserrat-Regular-63"/>
      <use x="978.499847" xlink:href="#Montserrat-Regular-61"/>
      <use x="1037.499832" xlink:href="#Montserrat-Regular-6c"/>
      <use x="1064.399826" xlink:href="#Montserrat-Regular-20"/>
      <use x="1090.599823" xlink:href="#Montserrat-Regular-73"/>
      <use x="1139.499817" xlink:href="#Montserrat-Regular-70"/>
      <use x="1207.299805" xlink:href="#Montserrat-Regular-72"/>
      <use x="1247.399796" xlink:href="#Montserrat-Regular-65"/>
      <use x="1307.799789" xlink:href="#Montserrat-Regular-61"/>
      <use x="1366.799774" xlink:href="#Montserrat-Regular-64"/>
      <use x="1434.599762" xlink:href="#Montserrat-Regular-20"/>
      <use x="1460.799759" xlink:href="#Montserrat-Regular-28"/>
      <use x="1493.699753" xlink:href="#Montserrat-Regular-6d"/>
      <use x="1599.799744" xlink:href="#Montserrat-Regular-6d"/>
      <use x="1705.899734" xlink:href="#Montserrat-Regular-29"/>
     </g>
    </g>
   </g>
   <g id="patch_8">
    <path d="M 62.413438 442.08 
L 62.413438 7.2 
" style="fill:none;stroke:#000000;stroke-linecap:square;stroke-linejoin:miter;stroke-width:0.5;"/>
   </g>
  </g>
 </g>
 <defs>
  <clipPath id="pd18b9e09d8">
   <rect height="434.88" width="223.2" x="67.413438" y="7.2"/>
  </clipPath>
 </defs>
</svg>
