<?xml version="1.0" encoding="utf-8" standalone="no"?>
<!DOCTYPE svg PUBLIC "-//W3C//DTD SVG 1.1//EN"
  "http://www.w3.org/Graphics/SVG/1.1/DTD/svg11.dtd">
<svg height="486.735pt" version="1.1" viewBox="0 0 509.527024 486.735" width="509.527024pt" xmlns="http://www.w3.org/2000/svg" xmlns:xlink="http://www.w3.org/1999/xlink">
 <metadata>
  <rdf:RDF xmlns:cc="http://creativecommons.org/ns#" xmlns:dc="http://purl.org/dc/elements/1.1/" xmlns:rdf="http://www.w3.org/1999/02/22-rdf-syntax-ns#">
   <cc:Work>
    <dc:type rdf:resource="http://purl.org/dc/dcmitype/StillImage"/>
    <dc:date>2022-11-07T10:32:14.160398</dc:date>
    <dc:format>image/svg+xml</dc:format>
    <dc:creator>
     <cc:Agent>
      <dc:title>Matplotlib v3.4.3, https://matplotlib.org/</dc:title>
     </cc:Agent>
    </dc:creator>
   </cc:Work>
  </rdf:RDF>
 </metadata>
 <defs>
  <style type="text/css">*{stroke-linecap:butt;stroke-linejoin:round;}</style>
 </defs>
 <g id="figure_1">
  <g id="patch_1">
   <path d="M 0 486.735 
L 509.527024 486.735 
L 509.527024 0 
L 0 0 
z
" style="fill:#ffffff;"/>
  </g>
  <g id="axes_1">
   <g id="patch_2">
    <path d="M 50.07125 442.08 
L 496.47125 442.08 
L 496.47125 7.2 
L 50.07125 7.2 
z
" style="fill:#ffffff;"/>
   </g>
   <g id="patch_3">
    <path clip-path="url(#pd7770f6b30)" d="M 140.945017 442.08 
L 144.508114 442.08 
L 144.508114 424.044737 
L 140.945017 424.044737 
z
" style="fill:#fbb4ae;opacity:0.4;"/>
   </g>
   <g id="patch_4">
    <path clip-path="url(#pd7770f6b30)" d="M 144.508114 442.08 
L 148.071211 442.08 
L 148.071211 442.08 
L 144.508114 442.08 
z
" style="fill:#fbb4ae;opacity:0.4;"/>
   </g>
   <g id="patch_5">
    <path clip-path="url(#pd7770f6b30)" d="M 148.071211 442.08 
L 151.634309 442.08 
L 151.634309 442.08 
L 148.071211 442.08 
z
" style="fill:#fbb4ae;opacity:0.4;"/>
   </g>
   <g id="patch_6">
    <path clip-path="url(#pd7770f6b30)" d="M 151.634309 442.08 
L 155.197406 442.08 
L 155.197406 430.056492 
L 151.634309 430.056492 
z
" style="fill:#fbb4ae;opacity:0.4;"/>
   </g>
   <g id="patch_7">
    <path clip-path="url(#pd7770f6b30)" d="M 155.197406 442.08 
L 158.760504 442.08 
L 158.760504 424.044737 
L 155.197406 424.044737 
z
" style="fill:#fbb4ae;opacity:0.4;"/>
   </g>
   <g id="patch_8">
    <path clip-path="url(#pd7770f6b30)" d="M 158.760504 442.08 
L 162.323601 442.08 
L 162.323601 436.068246 
L 158.760504 436.068246 
z
" style="fill:#fbb4ae;opacity:0.4;"/>
   </g>
   <g id="patch_9">
    <path clip-path="url(#pd7770f6b30)" d="M 162.323601 442.08 
L 165.886699 442.08 
L 165.886699 424.044737 
L 162.323601 424.044737 
z
" style="fill:#fbb4ae;opacity:0.4;"/>
   </g>
   <g id="patch_10">
    <path clip-path="url(#pd7770f6b30)" d="M 165.886699 442.08 
L 169.449796 442.08 
L 169.449796 430.056492 
L 165.886699 430.056492 
z
" style="fill:#fbb4ae;opacity:0.4;"/>
   </g>
   <g id="patch_11">
    <path clip-path="url(#pd7770f6b30)" d="M 169.449796 442.08 
L 173.012894 442.08 
L 173.012894 393.985966 
L 169.449796 393.985966 
z
" style="fill:#fbb4ae;opacity:0.4;"/>
   </g>
   <g id="patch_12">
    <path clip-path="url(#pd7770f6b30)" d="M 173.012894 442.08 
L 176.575991 442.08 
L 176.575991 333.868424 
L 173.012894 333.868424 
z
" style="fill:#fbb4ae;opacity:0.4;"/>
   </g>
   <g id="patch_13">
    <path clip-path="url(#pd7770f6b30)" d="M 176.575991 442.08 
L 180.139088 442.08 
L 180.139088 321.844916 
L 176.575991 321.844916 
z
" style="fill:#fbb4ae;opacity:0.4;"/>
   </g>
   <g id="patch_14">
    <path clip-path="url(#pd7770f6b30)" d="M 180.139088 442.08 
L 183.702186 442.08 
L 183.702186 315.833162 
L 180.139088 315.833162 
z
" style="fill:#fbb4ae;opacity:0.4;"/>
   </g>
   <g id="patch_15">
    <path clip-path="url(#pd7770f6b30)" d="M 183.702186 442.08 
L 187.265283 442.08 
L 187.265283 406.009475 
L 183.702186 406.009475 
z
" style="fill:#fbb4ae;opacity:0.4;"/>
   </g>
   <g id="patch_16">
    <path clip-path="url(#pd7770f6b30)" d="M 187.265283 442.08 
L 190.828381 442.08 
L 190.828381 393.985966 
L 187.265283 393.985966 
z
" style="fill:#fbb4ae;opacity:0.4;"/>
   </g>
   <g id="patch_17">
    <path clip-path="url(#pd7770f6b30)" d="M 190.828381 442.08 
L 194.391478 442.08 
L 194.391478 418.032983 
L 190.828381 418.032983 
z
" style="fill:#fbb4ae;opacity:0.4;"/>
   </g>
   <g id="patch_18">
    <path clip-path="url(#pd7770f6b30)" d="M 194.391478 442.08 
L 197.954576 442.08 
L 197.954576 436.068246 
L 194.391478 436.068246 
z
" style="fill:#fbb4ae;opacity:0.4;"/>
   </g>
   <g id="patch_19">
    <path clip-path="url(#pd7770f6b30)" d="M 84.603521 442.08 
L 89.818145 442.08 
L 89.818145 368.140186 
L 84.603521 368.140186 
z
" style="fill:#b3cde3;opacity:0.4;"/>
   </g>
   <g id="patch_20">
    <path clip-path="url(#pd7770f6b30)" d="M 89.818145 442.08 
L 95.03277 442.08 
L 95.03277 351.709116 
L 89.818145 351.709116 
z
" style="fill:#b3cde3;opacity:0.4;"/>
   </g>
   <g id="patch_21">
    <path clip-path="url(#pd7770f6b30)" d="M 95.03277 442.08 
L 100.247395 442.08 
L 100.247395 355.816883 
L 95.03277 355.816883 
z
" style="fill:#b3cde3;opacity:0.4;"/>
   </g>
   <g id="patch_22">
    <path clip-path="url(#pd7770f6b30)" d="M 100.247395 442.08 
L 105.46202 442.08 
L 105.46202 384.571255 
L 100.247395 384.571255 
z
" style="fill:#b3cde3;opacity:0.4;"/>
   </g>
   <g id="patch_23">
    <path clip-path="url(#pd7770f6b30)" d="M 105.46202 442.08 
L 110.676645 442.08 
L 110.676645 409.21786 
L 105.46202 409.21786 
z
" style="fill:#b3cde3;opacity:0.4;"/>
   </g>
   <g id="patch_24">
    <path clip-path="url(#pd7770f6b30)" d="M 110.676645 442.08 
L 115.891269 442.08 
L 115.891269 409.21786 
L 110.676645 409.21786 
z
" style="fill:#b3cde3;opacity:0.4;"/>
   </g>
   <g id="patch_25">
    <path clip-path="url(#pd7770f6b30)" d="M 115.891269 442.08 
L 121.105894 442.08 
L 121.105894 437.972233 
L 115.891269 437.972233 
z
" style="fill:#b3cde3;opacity:0.4;"/>
   </g>
   <g id="patch_26">
    <path clip-path="url(#pd7770f6b30)" d="M 121.105894 442.08 
L 126.320519 442.08 
L 126.320519 433.864465 
L 121.105894 433.864465 
z
" style="fill:#b3cde3;opacity:0.4;"/>
   </g>
   <g id="patch_27">
    <path clip-path="url(#pd7770f6b30)" d="M 126.320519 442.08 
L 131.535144 442.08 
L 131.535144 433.864465 
L 126.320519 433.864465 
z
" style="fill:#b3cde3;opacity:0.4;"/>
   </g>
   <g id="patch_28">
    <path clip-path="url(#pd7770f6b30)" d="M 131.535144 442.08 
L 136.749768 442.08 
L 136.749768 425.64893 
L 131.535144 425.64893 
z
" style="fill:#b3cde3;opacity:0.4;"/>
   </g>
   <g id="patch_29">
    <path clip-path="url(#pd7770f6b30)" d="M 113.940017 442.08 
L 120.471877 442.08 
L 120.471877 432.241853 
L 113.940017 432.241853 
z
" style="fill:#ccebc5;opacity:0.4;"/>
   </g>
   <g id="patch_30">
    <path clip-path="url(#pd7770f6b30)" d="M 120.471877 442.08 
L 127.003736 442.08 
L 127.003736 425.683088 
L 120.471877 425.683088 
z
" style="fill:#ccebc5;opacity:0.4;"/>
   </g>
   <g id="patch_31">
    <path clip-path="url(#pd7770f6b30)" d="M 127.003736 442.08 
L 133.535596 442.08 
L 133.535596 428.96247 
L 127.003736 428.96247 
z
" style="fill:#ccebc5;opacity:0.4;"/>
   </g>
   <g id="patch_32">
    <path clip-path="url(#pd7770f6b30)" d="M 133.535596 442.08 
L 140.067456 442.08 
L 140.067456 392.889263 
L 133.535596 392.889263 
z
" style="fill:#ccebc5;opacity:0.4;"/>
   </g>
   <g id="patch_33">
    <path clip-path="url(#pd7770f6b30)" d="M 140.067456 442.08 
L 146.599315 442.08 
L 146.599315 360.095439 
L 140.067456 360.095439 
z
" style="fill:#ccebc5;opacity:0.4;"/>
   </g>
   <g id="patch_34">
    <path clip-path="url(#pd7770f6b30)" d="M 146.599315 442.08 
L 153.131175 442.08 
L 153.131175 389.609881 
L 146.599315 389.609881 
z
" style="fill:#ccebc5;opacity:0.4;"/>
   </g>
   <g id="patch_35">
    <path clip-path="url(#pd7770f6b30)" d="M 153.131175 442.08 
L 159.663035 442.08 
L 159.663035 409.286176 
L 153.131175 409.286176 
z
" style="fill:#ccebc5;opacity:0.4;"/>
   </g>
   <g id="patch_36">
    <path clip-path="url(#pd7770f6b30)" d="M 159.663035 442.08 
L 166.194895 442.08 
L 166.194895 412.565558 
L 159.663035 412.565558 
z
" style="fill:#ccebc5;opacity:0.4;"/>
   </g>
   <g id="patch_37">
    <path clip-path="url(#pd7770f6b30)" d="M 166.194895 442.08 
L 172.726754 442.08 
L 172.726754 422.403705 
L 166.194895 422.403705 
z
" style="fill:#ccebc5;opacity:0.4;"/>
   </g>
   <g id="patch_38">
    <path clip-path="url(#pd7770f6b30)" d="M 172.726754 442.08 
L 179.258614 442.08 
L 179.258614 422.403705 
L 172.726754 422.403705 
z
" style="fill:#ccebc5;opacity:0.4;"/>
   </g>
   <g id="patch_39">
    <path clip-path="url(#pd7770f6b30)" d="M 179.258614 442.08 
L 185.790474 442.08 
L 185.790474 442.08 
L 179.258614 442.08 
z
" style="fill:#ccebc5;opacity:0.4;"/>
   </g>
   <g id="patch_40">
    <path clip-path="url(#pd7770f6b30)" d="M 185.790474 442.08 
L 192.322333 442.08 
L 192.322333 438.800618 
L 185.790474 438.800618 
z
" style="fill:#ccebc5;opacity:0.4;"/>
   </g>
   <g id="patch_41">
    <path clip-path="url(#pd7770f6b30)" d="M 461.270829 442.08 
L 462.305205 442.08 
L 462.305205 421.371429 
L 461.270829 421.371429 
z
" style="fill:#decbe4;opacity:0.4;"/>
   </g>
   <g id="patch_42">
    <path clip-path="url(#pd7770f6b30)" d="M 462.305205 442.08 
L 463.339582 442.08 
L 463.339582 442.08 
L 462.305205 442.08 
z
" style="fill:#decbe4;opacity:0.4;"/>
   </g>
   <g id="patch_43">
    <path clip-path="url(#pd7770f6b30)" d="M 463.339582 442.08 
L 464.373959 442.08 
L 464.373959 379.954286 
L 463.339582 379.954286 
z
" style="fill:#decbe4;opacity:0.4;"/>
   </g>
   <g id="patch_44">
    <path clip-path="url(#pd7770f6b30)" d="M 464.373959 442.08 
L 465.408336 442.08 
L 465.408336 421.371429 
L 464.373959 421.371429 
z
" style="fill:#decbe4;opacity:0.4;"/>
   </g>
   <g id="patch_45">
    <path clip-path="url(#pd7770f6b30)" d="M 465.408336 442.08 
L 466.442713 442.08 
L 466.442713 338.537143 
L 465.408336 338.537143 
z
" style="fill:#decbe4;opacity:0.4;"/>
   </g>
   <g id="patch_46">
    <path clip-path="url(#pd7770f6b30)" d="M 466.442713 442.08 
L 467.477089 442.08 
L 467.477089 172.868571 
L 466.442713 172.868571 
z
" style="fill:#decbe4;opacity:0.4;"/>
   </g>
   <g id="patch_47">
    <path clip-path="url(#pd7770f6b30)" d="M 467.477089 442.08 
L 468.511466 442.08 
L 468.511466 27.908571 
L 467.477089 27.908571 
z
" style="fill:#decbe4;opacity:0.4;"/>
   </g>
   <g id="patch_48">
    <path clip-path="url(#pd7770f6b30)" d="M 468.511466 442.08 
L 469.545843 442.08 
L 469.545843 48.617143 
L 468.511466 48.617143 
z
" style="fill:#decbe4;opacity:0.4;"/>
   </g>
   <g id="patch_49">
    <path clip-path="url(#pd7770f6b30)" d="M 469.545843 442.08 
L 470.58022 442.08 
L 470.58022 48.617143 
L 469.545843 48.617143 
z
" style="fill:#decbe4;opacity:0.4;"/>
   </g>
   <g id="patch_50">
    <path clip-path="url(#pd7770f6b30)" d="M 470.58022 442.08 
L 471.614597 442.08 
L 471.614597 172.868571 
L 470.58022 172.868571 
z
" style="fill:#decbe4;opacity:0.4;"/>
   </g>
   <g id="patch_51">
    <path clip-path="url(#pd7770f6b30)" d="M 471.614597 442.08 
L 472.648973 442.08 
L 472.648973 359.245714 
L 471.614597 359.245714 
z
" style="fill:#decbe4;opacity:0.4;"/>
   </g>
   <g id="patch_52">
    <path clip-path="url(#pd7770f6b30)" d="M 472.648973 442.08 
L 473.68335 442.08 
L 473.68335 400.662857 
L 472.648973 400.662857 
z
" style="fill:#decbe4;opacity:0.4;"/>
   </g>
   <g id="patch_53">
    <path clip-path="url(#pd7770f6b30)" d="M 132.287107 442.08 
L 137.040543 442.08 
L 137.040543 433.067377 
L 132.287107 433.067377 
z
" style="fill:#fed9a6;opacity:0.4;"/>
   </g>
   <g id="patch_54">
    <path clip-path="url(#pd7770f6b30)" d="M 137.040543 442.08 
L 141.79398 442.08 
L 141.79398 424.054754 
L 137.040543 424.054754 
z
" style="fill:#fed9a6;opacity:0.4;"/>
   </g>
   <g id="patch_55">
    <path clip-path="url(#pd7770f6b30)" d="M 141.79398 442.08 
L 146.547416 442.08 
L 146.547416 406.029507 
L 141.79398 406.029507 
z
" style="fill:#fed9a6;opacity:0.4;"/>
   </g>
   <g id="patch_56">
    <path clip-path="url(#pd7770f6b30)" d="M 146.547416 442.08 
L 151.300853 442.08 
L 151.300853 369.979014 
L 146.547416 369.979014 
z
" style="fill:#fed9a6;opacity:0.4;"/>
   </g>
   <g id="patch_57">
    <path clip-path="url(#pd7770f6b30)" d="M 151.300853 442.08 
L 156.054289 442.08 
L 156.054289 333.928521 
L 151.300853 333.928521 
z
" style="fill:#fed9a6;opacity:0.4;"/>
   </g>
   <g id="patch_58">
    <path clip-path="url(#pd7770f6b30)" d="M 156.054289 442.08 
L 160.807726 442.08 
L 160.807726 351.953768 
L 156.054289 351.953768 
z
" style="fill:#fed9a6;opacity:0.4;"/>
   </g>
   <g id="patch_59">
    <path clip-path="url(#pd7770f6b30)" d="M 160.807726 442.08 
L 165.561162 442.08 
L 165.561162 378.991637 
L 160.807726 378.991637 
z
" style="fill:#fed9a6;opacity:0.4;"/>
   </g>
   <g id="patch_60">
    <path clip-path="url(#pd7770f6b30)" d="M 165.561162 442.08 
L 170.314599 442.08 
L 170.314599 410.535819 
L 165.561162 410.535819 
z
" style="fill:#fed9a6;opacity:0.4;"/>
   </g>
   <g id="patch_61">
    <path clip-path="url(#pd7770f6b30)" d="M 170.314599 442.08 
L 175.068035 442.08 
L 175.068035 424.054754 
L 170.314599 424.054754 
z
" style="fill:#fed9a6;opacity:0.4;"/>
   </g>
   <g id="patch_62">
    <path clip-path="url(#pd7770f6b30)" d="M 175.068035 442.08 
L 179.821471 442.08 
L 179.821471 437.573688 
L 175.068035 437.573688 
z
" style="fill:#fed9a6;opacity:0.4;"/>
   </g>
   <g id="matplotlib.axis_1">
    <g id="xtick_1">
     <g id="line2d_1"/>
     <g id="text_1">
      <!-- 0.0 -->
      <g transform="translate(61.052448 455.968437)scale(0.14 -0.14)">
       <defs>
        <path d="M 2118 -38 
C 3155 -38 3910 813 3910 2240 
C 3910 3667 3155 4518 2118 4518 
C 1082 4518 333 3667 333 2240 
C 333 813 1082 -38 2118 -38 
z
M 2118 384 
C 1338 384 800 1043 800 2240 
C 800 3437 1338 4096 2118 4096 
C 2899 4096 3437 3437 3437 2240 
C 3437 1043 2899 384 2118 384 
z
" id="Montserrat-Regular-30" transform="scale(0.015625)"/>
        <path d="M 678 -32 
C 864 -32 1024 122 1024 320 
C 1024 518 864 666 678 666 
C 493 666 339 518 339 320 
C 339 122 493 -32 678 -32 
z
" id="Montserrat-Regular-2e" transform="scale(0.015625)"/>
       </defs>
       <use xlink:href="#Montserrat-Regular-30"/>
       <use x="66.199997" xlink:href="#Montserrat-Regular-2e"/>
       <use x="87.399994" xlink:href="#Montserrat-Regular-30"/>
      </g>
     </g>
    </g>
    <g id="xtick_2">
     <g id="line2d_2"/>
     <g id="text_2">
      <!-- 0.2 -->
      <g transform="translate(132.133445 455.968437)scale(0.14 -0.14)">
       <defs>
        <path d="M 928 410 
L 2451 1907 
C 3053 2496 3187 2880 3187 3309 
C 3187 4058 2611 4518 1702 4518 
C 1018 4518 461 4288 115 3878 
L 442 3597 
C 736 3936 1139 4096 1664 4096 
C 2349 4096 2714 3776 2714 3258 
C 2714 2950 2618 2650 2112 2150 
L 250 326 
L 250 0 
L 3392 0 
L 3392 410 
L 928 410 
z
" id="Montserrat-Regular-32" transform="scale(0.015625)"/>
       </defs>
       <use xlink:href="#Montserrat-Regular-30"/>
       <use x="66.199997" xlink:href="#Montserrat-Regular-2e"/>
       <use x="87.399994" xlink:href="#Montserrat-Regular-32"/>
      </g>
     </g>
    </g>
    <g id="xtick_3">
     <g id="line2d_3"/>
     <g id="text_3">
      <!-- 0.4 -->
      <g transform="translate(201.905223 455.968437)scale(0.14 -0.14)">
       <defs>
        <path d="M 4141 1587 
L 3245 1587 
L 3245 2624 
L 2797 2624 
L 2797 1587 
L 851 1587 
L 3142 4480 
L 2630 4480 
L 256 1510 
L 256 1178 
L 2784 1178 
L 2784 0 
L 3245 0 
L 3245 1178 
L 4141 1178 
L 4141 1587 
z
" id="Montserrat-Regular-34" transform="scale(0.015625)"/>
       </defs>
       <use xlink:href="#Montserrat-Regular-30"/>
       <use x="66.199997" xlink:href="#Montserrat-Regular-2e"/>
       <use x="87.399994" xlink:href="#Montserrat-Regular-34"/>
      </g>
     </g>
    </g>
    <g id="xtick_4">
     <g id="line2d_4"/>
     <g id="text_4">
      <!-- 0.6 -->
      <g transform="translate(272.690908 455.968437)scale(0.14 -0.14)">
       <defs>
        <path d="M 2189 2682 
C 1568 2682 1043 2406 819 1914 
C 806 2048 800 2176 800 2278 
C 800 3494 1421 4115 2387 4115 
C 2720 4115 3027 4058 3258 3904 
L 3443 4275 
C 3162 4448 2784 4518 2381 4518 
C 1165 4518 333 3725 333 2202 
C 333 787 979 -38 2170 -38 
C 3040 -38 3699 499 3699 1338 
C 3699 2157 3078 2682 2189 2682 
z
M 2150 352 
C 1376 352 966 819 966 1312 
C 966 1869 1434 2291 2118 2291 
C 2810 2291 3245 1914 3245 1325 
C 3245 730 2797 352 2150 352 
z
" id="Montserrat-Regular-36" transform="scale(0.015625)"/>
       </defs>
       <use xlink:href="#Montserrat-Regular-30"/>
       <use x="66.199997" xlink:href="#Montserrat-Regular-2e"/>
       <use x="87.399994" xlink:href="#Montserrat-Regular-36"/>
      </g>
     </g>
    </g>
    <g id="xtick_5">
     <g id="line2d_5"/>
     <g id="text_5">
      <!-- 0.8 -->
      <g transform="translate(342.911124 455.968437)scale(0.14 -0.14)">
       <defs>
        <path d="M 2899 2349 
C 3360 2528 3616 2867 3616 3334 
C 3616 4064 2982 4518 2035 4518 
C 1088 4518 467 4064 467 3334 
C 467 2867 717 2528 1171 2349 
C 614 2163 307 1786 307 1248 
C 307 454 960 -38 2035 -38 
C 3104 -38 3776 454 3776 1248 
C 3776 1779 3462 2163 2899 2349 
z
M 928 3322 
C 928 3821 1357 4128 2035 4128 
C 2707 4128 3149 3821 3149 3315 
C 3149 2829 2733 2515 2035 2515 
C 1338 2515 928 2829 928 3322 
z
M 2035 352 
C 1242 352 774 698 774 1254 
C 774 1805 1242 2150 2035 2150 
C 2829 2150 3302 1805 3302 1254 
C 3302 698 2829 352 2035 352 
z
" id="Montserrat-Regular-38" transform="scale(0.015625)"/>
       </defs>
       <use xlink:href="#Montserrat-Regular-30"/>
       <use x="66.199997" xlink:href="#Montserrat-Regular-2e"/>
       <use x="87.399994" xlink:href="#Montserrat-Regular-38"/>
      </g>
     </g>
    </g>
    <g id="xtick_6">
     <g id="line2d_6"/>
     <g id="text_6">
      <!-- 1.0 -->
      <g transform="translate(415.272902 455.968437)scale(0.14 -0.14)">
       <defs>
        <path d="M 58 4480 
L 58 4070 
L 1114 4070 
L 1114 0 
L 1574 0 
L 1574 4480 
L 58 4480 
z
" id="Montserrat-Regular-31" transform="scale(0.015625)"/>
       </defs>
       <use xlink:href="#Montserrat-Regular-31"/>
       <use x="36.099991" xlink:href="#Montserrat-Regular-2e"/>
       <use x="57.299988" xlink:href="#Montserrat-Regular-30"/>
      </g>
     </g>
    </g>
    <g id="xtick_7">
     <g id="line2d_7"/>
     <g id="text_7">
      <!-- 1.2 -->
      <g transform="translate(486.353899 455.968437)scale(0.14 -0.14)">
       <use xlink:href="#Montserrat-Regular-31"/>
       <use x="36.099991" xlink:href="#Montserrat-Regular-2e"/>
       <use x="57.299988" xlink:href="#Montserrat-Regular-32"/>
      </g>
     </g>
    </g>
    <g id="text_8">
     <!-- distance (mm) -->
     <g transform="translate(207.408125 476.041875)scale(0.18 -0.18)">
      <defs>
       <path d="M 3251 4749 
L 3251 2726 
C 2970 3162 2509 3392 1971 3392 
C 1011 3392 294 2701 294 1683 
C 294 666 1011 -32 1971 -32 
C 2528 -32 2995 211 3270 666 
L 3270 0 
L 3706 0 
L 3706 4749 
L 3251 4749 
z
M 2010 371 
C 1293 371 755 896 755 1683 
C 755 2470 1293 2995 2010 2995 
C 2720 2995 3258 2470 3258 1683 
C 3258 896 2720 371 2010 371 
z
" id="Montserrat-Regular-64" transform="scale(0.015625)"/>
       <path d="M 864 4102 
C 1056 4102 1197 4250 1197 4435 
C 1197 4608 1050 4749 864 4749 
C 678 4749 531 4602 531 4429 
C 531 4250 678 4102 864 4102 
z
M 634 0 
L 1088 0 
L 1088 3366 
L 634 3366 
L 634 0 
z
" id="Montserrat-Regular-69" transform="scale(0.015625)"/>
       <path d="M 1536 -32 
C 2413 -32 2925 346 2925 928 
C 2925 2221 742 1536 742 2445 
C 742 2765 1011 3002 1619 3002 
C 1965 3002 2317 2918 2611 2714 
L 2810 3078 
C 2528 3270 2054 3392 1619 3392 
C 762 3392 288 2982 288 2432 
C 288 1101 2470 1792 2470 915 
C 2470 582 2208 365 1568 365 
C 1094 365 640 531 371 742 
L 166 384 
C 442 147 979 -32 1536 -32 
z
" id="Montserrat-Regular-73" transform="scale(0.015625)"/>
       <path d="M 2246 531 
C 2118 416 1933 358 1747 358 
C 1370 358 1165 576 1165 973 
L 1165 2982 
L 2189 2982 
L 2189 3366 
L 1165 3366 
L 1165 4102 
L 710 4102 
L 710 3366 
L 109 3366 
L 109 2982 
L 710 2982 
L 710 947 
C 710 326 1062 -32 1696 -32 
C 1958 -32 2227 45 2406 205 
L 2246 531 
z
" id="Montserrat-Regular-74" transform="scale(0.015625)"/>
       <path d="M 1811 3392 
C 1280 3392 781 3226 442 2938 
L 646 2598 
C 922 2842 1331 2995 1766 2995 
C 2394 2995 2720 2682 2720 2106 
L 2720 1901 
L 1651 1901 
C 685 1901 352 1466 352 947 
C 352 365 819 -32 1581 -32 
C 2138 -32 2534 179 2739 525 
L 2739 0 
L 3174 0 
L 3174 2086 
C 3174 2957 2682 3392 1811 3392 
z
M 1651 326 
C 1114 326 800 570 800 960 
C 800 1306 1011 1562 1664 1562 
L 2720 1562 
L 2720 1011 
C 2541 570 2163 326 1651 326 
z
" id="Montserrat-Regular-61" transform="scale(0.015625)"/>
       <path d="M 2349 3392 
C 1766 3392 1312 3155 1069 2746 
L 1069 3366 
L 634 3366 
L 634 0 
L 1088 0 
L 1088 1766 
C 1088 2534 1542 2982 2266 2982 
C 2906 2982 3277 2618 3277 1907 
L 3277 0 
L 3731 0 
L 3731 1952 
C 3731 2918 3168 3392 2349 3392 
z
" id="Montserrat-Regular-6e" transform="scale(0.015625)"/>
       <path d="M 2029 -32 
C 2598 -32 3078 198 3347 634 
L 3008 864 
C 2778 525 2419 371 2029 371 
C 1293 371 755 890 755 1683 
C 755 2470 1293 2995 2029 2995 
C 2419 2995 2778 2835 3008 2496 
L 3347 2726 
C 3078 3168 2598 3392 2029 3392 
C 1024 3392 294 2688 294 1683 
C 294 678 1024 -32 2029 -32 
z
" id="Montserrat-Regular-63" transform="scale(0.015625)"/>
       <path d="M 3571 1683 
C 3571 2694 2886 3392 1939 3392 
C 992 3392 294 2682 294 1683 
C 294 685 1011 -32 2061 -32 
C 2592 -32 3059 160 3360 518 
L 3104 813 
C 2848 518 2483 371 2074 371 
C 1338 371 800 838 749 1542 
L 3565 1542 
C 3565 1594 3571 1645 3571 1683 
z
M 1939 3002 
C 2598 3002 3078 2541 3136 1882 
L 749 1882 
C 806 2541 1286 3002 1939 3002 
z
" id="Montserrat-Regular-65" transform="scale(0.015625)"/>
       <path id="Montserrat-Regular-20" transform="scale(0.015625)"/>
       <path d="M 1408 -1242 
L 1843 -1242 
C 1338 -365 1114 614 1114 1754 
C 1114 2893 1338 3872 1843 4749 
L 1408 4749 
C 934 3987 666 2931 666 1754 
C 666 576 934 -467 1408 -1242 
z
" id="Montserrat-Regular-28" transform="scale(0.015625)"/>
       <path d="M 4832 3392 
C 4224 3392 3744 3117 3501 2682 
C 3296 3155 2861 3392 2304 3392 
C 1741 3392 1306 3155 1069 2752 
L 1069 3366 
L 634 3366 
L 634 0 
L 1088 0 
L 1088 1766 
C 1088 2534 1530 2982 2214 2982 
C 2829 2982 3187 2618 3187 1907 
L 3187 0 
L 3642 0 
L 3642 1766 
C 3642 2534 4077 2982 4768 2982 
C 5376 2982 5734 2618 5734 1907 
L 5734 0 
L 6189 0 
L 6189 1952 
C 6189 2918 5651 3392 4832 3392 
z
" id="Montserrat-Regular-6d" transform="scale(0.015625)"/>
       <path d="M 691 -1242 
C 1171 -467 1440 576 1440 1754 
C 1440 2931 1171 3987 691 4749 
L 256 4749 
C 768 3872 992 2893 992 1754 
C 992 614 768 -365 256 -1242 
L 691 -1242 
z
" id="Montserrat-Regular-29" transform="scale(0.015625)"/>
      </defs>
      <use xlink:href="#Montserrat-Regular-64"/>
      <use x="67.799988" xlink:href="#Montserrat-Regular-69"/>
      <use x="94.699982" xlink:href="#Montserrat-Regular-73"/>
      <use x="143.599976" xlink:href="#Montserrat-Regular-74"/>
      <use x="184.199966" xlink:href="#Montserrat-Regular-61"/>
      <use x="243.199951" xlink:href="#Montserrat-Regular-6e"/>
      <use x="310.899933" xlink:href="#Montserrat-Regular-63"/>
      <use x="367.199921" xlink:href="#Montserrat-Regular-65"/>
      <use x="427.599915" xlink:href="#Montserrat-Regular-20"/>
      <use x="453.799911" xlink:href="#Montserrat-Regular-28"/>
      <use x="486.699905" xlink:href="#Montserrat-Regular-6d"/>
      <use x="592.799896" xlink:href="#Montserrat-Regular-6d"/>
      <use x="698.899887" xlink:href="#Montserrat-Regular-29"/>
     </g>
    </g>
   </g>
   <g id="matplotlib.axis_2">
    <g id="ytick_1">
     <g id="line2d_8"/>
     <g id="text_9">
      <!-- 0 -->
      <g transform="translate(37.302813 447.274219)scale(0.14 -0.14)">
       <use xlink:href="#Montserrat-Regular-30"/>
      </g>
     </g>
    </g>
    <g id="ytick_2">
     <g id="line2d_9"/>
     <g id="text_10">
      <!-- 10 -->
      <g transform="translate(32.249688 386.440116)scale(0.14 -0.14)">
       <use xlink:href="#Montserrat-Regular-31"/>
       <use x="36.099991" xlink:href="#Montserrat-Regular-30"/>
      </g>
     </g>
    </g>
    <g id="ytick_3">
     <g id="line2d_10"/>
     <g id="text_11">
      <!-- 20 -->
      <g transform="translate(29.35125 325.606013)scale(0.14 -0.14)">
       <use xlink:href="#Montserrat-Regular-32"/>
       <use x="56.799988" xlink:href="#Montserrat-Regular-30"/>
      </g>
     </g>
    </g>
    <g id="ytick_4">
     <g id="line2d_11"/>
     <g id="text_12">
      <!-- 30 -->
      <g transform="translate(29.405938 264.771911)scale(0.14 -0.14)">
       <defs>
        <path d="M 1856 2560 
L 3123 4154 
L 3123 4480 
L 243 4480 
L 243 4070 
L 2534 4070 
L 1293 2515 
L 1293 2176 
L 1613 2176 
C 2445 2176 2822 1824 2822 1286 
C 2822 730 2413 384 1670 384 
C 1088 384 570 602 282 902 
L 58 538 
C 403 186 1024 -38 1670 -38 
C 2752 -38 3296 538 3296 1286 
C 3296 2003 2816 2509 1856 2560 
z
" id="Montserrat-Regular-33" transform="scale(0.015625)"/>
       </defs>
       <use xlink:href="#Montserrat-Regular-33"/>
       <use x="56.399994" xlink:href="#Montserrat-Regular-30"/>
      </g>
     </g>
    </g>
    <g id="ytick_5">
     <g id="line2d_12"/>
     <g id="text_13">
      <!-- 40 -->
      <g transform="translate(28.049688 203.937808)scale(0.14 -0.14)">
       <use xlink:href="#Montserrat-Regular-34"/>
       <use x="66.099991" xlink:href="#Montserrat-Regular-30"/>
      </g>
     </g>
    </g>
    <g id="ytick_6">
     <g id="line2d_13"/>
     <g id="text_14">
      <!-- 50 -->
      <g transform="translate(29.379688 143.103706)scale(0.14 -0.14)">
       <defs>
        <path d="M 1510 2643 
L 934 2643 
L 1088 4070 
L 3136 4070 
L 3136 4480 
L 685 4480 
L 454 2234 
L 1408 2234 
C 2547 2234 2906 1875 2906 1299 
C 2906 755 2502 384 1741 384 
C 1165 384 653 602 365 902 
L 141 538 
C 486 186 1101 -38 1747 -38 
C 2842 -38 3373 557 3373 1318 
C 3373 2112 2861 2643 1510 2643 
z
" id="Montserrat-Regular-35" transform="scale(0.015625)"/>
       </defs>
       <use xlink:href="#Montserrat-Regular-35"/>
       <use x="56.599991" xlink:href="#Montserrat-Regular-30"/>
      </g>
     </g>
    </g>
    <g id="ytick_7">
     <g id="line2d_14"/>
     <g id="text_15">
      <!-- 60 -->
      <g transform="translate(28.775938 82.269603)scale(0.14 -0.14)">
       <use xlink:href="#Montserrat-Regular-36"/>
       <use x="60.899994" xlink:href="#Montserrat-Regular-30"/>
      </g>
     </g>
    </g>
    <g id="ytick_8">
     <g id="line2d_15"/>
     <g id="text_16">
      <!-- 70 -->
      <g transform="translate(29.055938 21.4355)scale(0.14 -0.14)">
       <defs>
        <path d="M 205 4480 
L 205 3232 
L 659 3232 
L 659 4070 
L 2963 4070 
L 1120 0 
L 1619 0 
L 3494 4154 
L 3494 4480 
L 205 4480 
z
" id="Montserrat-Regular-37" transform="scale(0.015625)"/>
       </defs>
       <use xlink:href="#Montserrat-Regular-37"/>
       <use x="58.899994" xlink:href="#Montserrat-Regular-30"/>
      </g>
     </g>
    </g>
    <g id="text_17">
     <!-- count -->
     <g transform="translate(20.556563 251.153437)rotate(-90)scale(0.18 -0.18)">
      <defs>
       <path d="M 2010 -32 
C 2995 -32 3718 685 3718 1683 
C 3718 2682 2995 3392 2010 3392 
C 1024 3392 294 2682 294 1683 
C 294 685 1024 -32 2010 -32 
z
M 2010 371 
C 1293 371 755 896 755 1683 
C 755 2470 1293 2995 2010 2995 
C 2726 2995 3258 2470 3258 1683 
C 3258 896 2726 371 2010 371 
z
" id="Montserrat-Regular-6f" transform="scale(0.015625)"/>
       <path d="M 3213 3366 
L 3213 1600 
C 3213 832 2771 378 2067 378 
C 1427 378 1056 742 1056 1459 
L 1056 3366 
L 602 3366 
L 602 1414 
C 602 448 1165 -32 2022 -32 
C 2560 -32 2995 205 3232 614 
L 3232 0 
L 3667 0 
L 3667 3366 
L 3213 3366 
z
" id="Montserrat-Regular-75" transform="scale(0.015625)"/>
      </defs>
      <use xlink:href="#Montserrat-Regular-63"/>
      <use x="56.299988" xlink:href="#Montserrat-Regular-6f"/>
      <use x="118.999985" xlink:href="#Montserrat-Regular-75"/>
      <use x="186.299973" xlink:href="#Montserrat-Regular-6e"/>
      <use x="253.999954" xlink:href="#Montserrat-Regular-74"/>
     </g>
    </g>
   </g>
   <g id="line2d_16">
    <path clip-path="url(#pd7770f6b30)" d="M 128.718498 442.053151 
L 131.584016 441.891082 
L 133.221455 441.609226 
L 134.449535 441.230212 
L 135.677614 440.663203 
L 137.315053 439.600052 
L 141.408651 436.521357 
L 142.63673 436.029268 
L 143.45545 435.904229 
L 144.683529 435.996908 
L 146.730328 436.541564 
L 147.958407 436.770023 
L 148.777127 436.763148 
L 149.595847 436.587959 
L 150.414566 436.233266 
L 151.642646 435.394238 
L 153.280085 433.903593 
L 155.326884 432.040028 
L 156.554963 431.187243 
L 157.783042 430.576063 
L 160.239201 429.53232 
L 161.057921 428.984351 
L 161.87664 428.210271 
L 162.69536 427.140979 
L 163.514079 425.712114 
L 164.332799 423.859537 
L 165.151518 421.514312 
L 165.970238 418.600769 
L 166.788958 415.040727 
L 168.017037 408.344095 
L 169.245116 399.943803 
L 170.473196 390.013713 
L 174.976153 351.469953 
L 175.794873 346.339014 
L 176.613592 342.313625 
L 177.432312 339.51138 
L 177.841672 338.594174 
L 178.251031 338.008365 
L 178.660391 337.757804 
L 179.069751 337.844142 
L 179.479111 338.266705 
L 179.888471 339.022294 
L 180.29783 340.104924 
L 181.11655 343.211772 
L 181.93527 347.473863 
L 183.163349 355.646892 
L 184.800788 368.61262 
L 187.256947 388.360059 
L 188.894386 399.673382 
L 190.531825 409.072322 
L 192.169264 416.853257 
L 193.806703 423.35319 
L 195.034783 427.482014 
L 196.262862 430.985237 
L 197.490941 433.873199 
L 198.719021 436.181576 
L 199.9471 437.972617 
L 201.175179 439.322284 
L 202.403259 440.306949 
L 203.631338 440.997064 
L 204.859417 441.45674 
L 206.496857 441.811372 
L 208.543655 442.002251 
L 210.181095 442.055476 
L 210.181095 442.055476 
" style="fill:none;stroke:#fbb4ae;stroke-linecap:square;stroke-width:4;"/>
   </g>
   <g id="line2d_17">
    <path clip-path="url(#pd7770f6b30)" d="M 70.362159 441.973369 
L 71.982842 441.775437 
L 73.198354 441.455604 
L 74.413866 440.87249 
L 75.224208 440.264583 
L 76.034549 439.418396 
L 76.84489 438.273174 
L 77.655232 436.765917 
L 78.465573 434.836369 
L 79.275915 432.433031 
L 80.491427 427.865744 
L 81.706939 422.126108 
L 82.922451 415.317378 
L 84.543134 404.999141 
L 88.594841 378.382271 
L 89.810353 371.69228 
L 91.025865 366.158247 
L 91.836207 363.235993 
L 92.646548 361.001959 
L 93.456889 359.506019 
L 93.86206 359.045673 
L 94.267231 358.780111 
L 94.672402 358.709575 
L 95.077572 358.8325 
L 95.482743 359.145398 
L 95.887914 359.642792 
L 96.698255 361.159197 
L 97.508597 363.299205 
L 98.724109 367.435764 
L 100.344791 374.001138 
L 103.586157 387.286904 
L 105.20684 392.998454 
L 107.232694 399.201567 
L 109.663718 405.827553 
L 117.361961 425.83047 
L 118.577473 428.262576 
L 119.792985 430.153477 
L 120.603327 431.087157 
L 121.413668 431.765255 
L 122.22401 432.210963 
L 123.034351 432.460199 
L 124.249863 432.562591 
L 126.275717 432.381445 
L 128.706741 432.21072 
L 130.327424 432.330483 
L 131.948107 432.709112 
L 133.163619 433.195681 
L 134.379131 433.873773 
L 135.999814 435.061738 
L 138.430838 437.2222 
L 140.861862 439.293642 
L 142.482545 440.365 
L 144.103228 441.121566 
L 145.723911 441.595098 
L 147.749764 441.900753 
L 150.585959 442.046188 
L 150.99113 442.054056 
L 150.99113 442.054056 
" style="fill:none;stroke:#b3cde3;stroke-linecap:square;stroke-width:4;"/>
   </g>
   <g id="line2d_18">
    <path clip-path="url(#pd7770f6b30)" d="M 96.667379 442.051109 
L 100.639707 441.886811 
L 102.909608 441.611528 
L 105.179509 441.091765 
L 106.881935 440.494228 
L 108.584361 439.706573 
L 110.854263 438.397014 
L 114.259115 436.104716 
L 123.906195 429.274846 
L 125.608621 427.593599 
L 126.743572 426.169283 
L 127.878523 424.406486 
L 129.013473 422.224925 
L 130.148424 419.55822 
L 131.283375 416.366556 
L 132.418325 412.648797 
L 134.120751 406.203098 
L 139.228029 385.356736 
L 140.36298 381.755708 
L 141.497931 378.960343 
L 142.065406 377.905052 
L 142.632881 377.091569 
L 143.200357 376.524729 
L 143.767832 376.205069 
L 144.335307 376.128932 
L 144.902783 376.288701 
L 145.470258 376.673133 
L 146.037733 377.267777 
L 147.172684 379.016864 
L 148.307635 381.37594 
L 150.010061 385.671673 
L 154.549864 397.872822 
L 156.25229 401.794709 
L 157.954716 405.229178 
L 160.224617 409.228353 
L 163.061994 413.729448 
L 165.89937 417.921311 
L 168.169272 420.930766 
L 170.439173 423.511087 
L 173.27655 426.300934 
L 176.113926 429.160089 
L 178.951303 432.444342 
L 181.78868 435.758151 
L 183.491106 437.421163 
L 184.626056 438.307876 
L 185.761007 439.000396 
L 186.895958 439.507765 
L 188.598384 439.982263 
L 190.868285 440.286426 
L 195.975563 440.840331 
L 202.785267 441.795055 
L 206.190119 441.99838 
L 209.594971 442.063511 
L 209.594971 442.063511 
" style="fill:none;stroke:#ccebc5;stroke-linecap:square;stroke-width:4;"/>
   </g>
   <g id="line2d_19">
    <path clip-path="url(#pd7770f6b30)" d="M 458.773838 441.965944 
L 459.123717 441.711506 
L 459.386127 441.289222 
L 459.736006 440.20467 
L 460.173356 437.774894 
L 461.048054 432.126991 
L 461.310464 431.688044 
L 461.485404 431.885554 
L 461.835283 433.061533 
L 462.185163 434.077515 
L 462.272632 434.101767 
L 462.447572 433.692152 
L 462.622512 432.537895 
L 462.884922 429.213147 
L 463.322271 419.768354 
L 464.984198 373.64826 
L 465.334078 353.815649 
L 465.858897 307.781596 
L 466.908535 184.358862 
L 467.695764 103.394599 
L 468.220583 67.644503 
L 468.657933 49.416618 
L 468.920342 44.065398 
L 469.095282 43.366768 
L 469.270222 45.305026 
L 469.532631 53.546959 
L 469.882511 74.320074 
L 470.40733 122.266272 
L 471.282029 227.044043 
L 472.244197 337.219719 
L 472.769016 377.236231 
L 473.293835 401.291302 
L 473.906124 417.992076 
L 474.693353 433.284166 
L 475.130703 438.359252 
L 475.480582 440.521753 
L 475.830461 441.528599 
L 476.180341 441.915612 
L 476.180341 441.915612 
" style="fill:none;stroke:#decbe4;stroke-linecap:square;stroke-width:4;"/>
   </g>
   <g id="line2d_20">
    <path clip-path="url(#pd7770f6b30)" d="M 121.876908 442.052215 
L 124.281347 441.901778 
L 125.998803 441.571623 
L 127.372768 441.077492 
L 128.746733 440.345285 
L 130.46419 439.133655 
L 132.181646 437.627762 
L 133.21212 436.502933 
L 134.242593 435.070383 
L 135.273067 433.170923 
L 136.303541 430.66604 
L 137.334015 427.50483 
L 138.70798 422.437433 
L 143.173366 405.148279 
L 144.547332 399.627945 
L 145.577805 394.729388 
L 146.95177 386.949365 
L 151.417157 359.602776 
L 152.447631 354.915138 
L 153.478105 351.289202 
L 154.165087 349.520655 
L 154.85207 348.303336 
L 155.539052 347.655878 
L 155.882543 347.549139 
L 156.226035 347.58767 
L 156.569526 347.771281 
L 157.256509 348.570832 
L 157.943491 349.938373 
L 158.630474 351.859072 
L 159.660947 355.727913 
L 160.691421 360.673545 
L 162.065386 368.599572 
L 164.813316 386.509955 
L 167.217755 401.519452 
L 168.935212 411.044128 
L 170.309177 417.704378 
L 171.683142 423.322765 
L 172.713616 426.80286 
L 173.744089 429.677266 
L 174.774563 432.006332 
L 175.805037 433.86543 
L 176.835511 435.333439 
L 178.209476 436.825543 
L 179.583441 437.974423 
L 181.98788 439.636715 
L 184.048828 440.815931 
L 185.422793 441.382952 
L 186.796758 441.746157 
L 188.514214 441.972063 
L 190.23167 442.052512 
L 190.23167 442.052512 
" style="fill:none;stroke:#fed9a6;stroke-linecap:square;stroke-width:4;"/>
   </g>
   <g id="patch_63">
    <path d="M 50.07125 442.08 
L 50.07125 7.2 
" style="fill:none;stroke:#000000;stroke-linecap:square;stroke-linejoin:miter;stroke-width:0.5;"/>
   </g>
   <g id="patch_64">
    <path d="M 50.07125 442.08 
L 496.47125 442.08 
" style="fill:none;stroke:#000000;stroke-linecap:square;stroke-linejoin:miter;stroke-width:0.5;"/>
   </g>
  </g>
 </g>
 <defs>
  <clipPath id="pd7770f6b30">
   <rect height="434.88" width="446.4" x="50.07125" y="7.2"/>
  </clipPath>
 </defs>
</svg>
