<?xml version="1.0" encoding="utf-8" standalone="no"?>
<!DOCTYPE svg PUBLIC "-//W3C//DTD SVG 1.1//EN"
  "http://www.w3.org/Graphics/SVG/1.1/DTD/svg11.dtd">
<svg height="486.735pt" version="1.1" viewBox="0 0 494.428298 486.735" width="494.428298pt" xmlns="http://www.w3.org/2000/svg" xmlns:xlink="http://www.w3.org/1999/xlink">
 <metadata>
  <rdf:RDF xmlns:cc="http://creativecommons.org/ns#" xmlns:dc="http://purl.org/dc/elements/1.1/" xmlns:rdf="http://www.w3.org/1999/02/22-rdf-syntax-ns#">
   <cc:Work>
    <dc:type rdf:resource="http://purl.org/dc/dcmitype/StillImage"/>
    <dc:date>2022-11-07T10:35:17.152056</dc:date>
    <dc:format>image/svg+xml</dc:format>
    <dc:creator>
     <cc:Agent>
      <dc:title>Matplotlib v3.4.3, https://matplotlib.org/</dc:title>
     </cc:Agent>
    </dc:creator>
   </cc:Work>
  </rdf:RDF>
 </metadata>
 <defs>
  <style type="text/css">*{stroke-linecap:butt;stroke-linejoin:round;}</style>
 </defs>
 <g id="figure_1">
  <g id="patch_1">
   <path d="M 0 486.735 
L 494.428298 486.735 
L 494.428298 0 
L 0 0 
z
" style="fill:#ffffff;"/>
  </g>
  <g id="axes_1">
   <g id="patch_2">
    <path d="M 40.818125 442.08 
L 487.218125 442.08 
L 487.218125 7.2 
L 40.818125 7.2 
z
" style="fill:#ffffff;"/>
   </g>
   <g id="patch_3">
    <path clip-path="url(#p3f7a5b78dc)" d="M 136.315921 442.08 
L 143.410488 442.08 
L 143.410488 274.738009 
L 136.315921 274.738009 
z
" style="fill:#cccccc;opacity:0.4;"/>
   </g>
   <g id="patch_4">
    <path clip-path="url(#p3f7a5b78dc)" d="M 143.410488 442.08 
L 150.505055 442.08 
L 150.505055 287.288658 
L 143.410488 287.288658 
z
" style="fill:#cccccc;opacity:0.4;"/>
   </g>
   <g id="patch_5">
    <path clip-path="url(#p3f7a5b78dc)" d="M 150.505055 442.08 
L 157.599622 442.08 
L 157.599622 375.143203 
L 150.505055 375.143203 
z
" style="fill:#cccccc;opacity:0.4;"/>
   </g>
   <g id="patch_6">
    <path clip-path="url(#p3f7a5b78dc)" d="M 157.599622 442.08 
L 164.694189 442.08 
L 164.694189 396.060952 
L 157.599622 396.060952 
z
" style="fill:#cccccc;opacity:0.4;"/>
   </g>
   <g id="patch_7">
    <path clip-path="url(#p3f7a5b78dc)" d="M 164.694189 442.08 
L 171.788756 442.08 
L 171.788756 370.959654 
L 164.694189 370.959654 
z
" style="fill:#cccccc;opacity:0.4;"/>
   </g>
   <g id="patch_8">
    <path clip-path="url(#p3f7a5b78dc)" d="M 171.788756 442.08 
L 178.883323 442.08 
L 178.883323 157.598615 
L 171.788756 157.598615 
z
" style="fill:#cccccc;opacity:0.4;"/>
   </g>
   <g id="patch_9">
    <path clip-path="url(#p3f7a5b78dc)" d="M 178.883323 442.08 
L 185.977889 442.08 
L 185.977889 165.965714 
L 178.883323 165.965714 
z
" style="fill:#cccccc;opacity:0.4;"/>
   </g>
   <g id="patch_10">
    <path clip-path="url(#p3f7a5b78dc)" d="M 185.977889 442.08 
L 193.072456 442.08 
L 193.072456 224.535411 
L 185.977889 224.535411 
z
" style="fill:#cccccc;opacity:0.4;"/>
   </g>
   <g id="patch_11">
    <path clip-path="url(#p3f7a5b78dc)" d="M 193.072456 442.08 
L 200.167023 442.08 
L 200.167023 191.067013 
L 193.072456 191.067013 
z
" style="fill:#cccccc;opacity:0.4;"/>
   </g>
   <g id="patch_12">
    <path clip-path="url(#p3f7a5b78dc)" d="M 200.167023 442.08 
L 207.26159 442.08 
L 207.26159 312.389957 
L 200.167023 312.389957 
z
" style="fill:#cccccc;opacity:0.4;"/>
   </g>
   <g id="patch_13">
    <path clip-path="url(#p3f7a5b78dc)" d="M 207.26159 442.08 
L 214.356157 442.08 
L 214.356157 433.7129 
L 207.26159 433.7129 
z
" style="fill:#cccccc;opacity:0.4;"/>
   </g>
   <g id="patch_14">
    <path clip-path="url(#p3f7a5b78dc)" d="M 214.356157 442.08 
L 221.450724 442.08 
L 221.450724 442.08 
L 214.356157 442.08 
z
" style="fill:#cccccc;opacity:0.4;"/>
   </g>
   <g id="patch_15">
    <path clip-path="url(#p3f7a5b78dc)" d="M 221.450724 442.08 
L 228.545291 442.08 
L 228.545291 442.08 
L 221.450724 442.08 
z
" style="fill:#cccccc;opacity:0.4;"/>
   </g>
   <g id="patch_16">
    <path clip-path="url(#p3f7a5b78dc)" d="M 228.545291 442.08 
L 235.639858 442.08 
L 235.639858 442.08 
L 228.545291 442.08 
z
" style="fill:#cccccc;opacity:0.4;"/>
   </g>
   <g id="patch_17">
    <path clip-path="url(#p3f7a5b78dc)" d="M 235.639858 442.08 
L 242.734424 442.08 
L 242.734424 442.08 
L 235.639858 442.08 
z
" style="fill:#cccccc;opacity:0.4;"/>
   </g>
   <g id="patch_18">
    <path clip-path="url(#p3f7a5b78dc)" d="M 242.734424 442.08 
L 249.828991 442.08 
L 249.828991 442.08 
L 242.734424 442.08 
z
" style="fill:#cccccc;opacity:0.4;"/>
   </g>
   <g id="patch_19">
    <path clip-path="url(#p3f7a5b78dc)" d="M 249.828991 442.08 
L 256.923558 442.08 
L 256.923558 442.08 
L 249.828991 442.08 
z
" style="fill:#cccccc;opacity:0.4;"/>
   </g>
   <g id="patch_20">
    <path clip-path="url(#p3f7a5b78dc)" d="M 256.923558 442.08 
L 264.018125 442.08 
L 264.018125 442.08 
L 256.923558 442.08 
z
" style="fill:#cccccc;opacity:0.4;"/>
   </g>
   <g id="patch_21">
    <path clip-path="url(#p3f7a5b78dc)" d="M 264.018125 442.08 
L 271.112692 442.08 
L 271.112692 442.08 
L 264.018125 442.08 
z
" style="fill:#cccccc;opacity:0.4;"/>
   </g>
   <g id="patch_22">
    <path clip-path="url(#p3f7a5b78dc)" d="M 271.112692 442.08 
L 278.207259 442.08 
L 278.207259 442.08 
L 271.112692 442.08 
z
" style="fill:#cccccc;opacity:0.4;"/>
   </g>
   <g id="patch_23">
    <path clip-path="url(#p3f7a5b78dc)" d="M 278.207259 442.08 
L 285.301826 442.08 
L 285.301826 442.08 
L 278.207259 442.08 
z
" style="fill:#cccccc;opacity:0.4;"/>
   </g>
   <g id="patch_24">
    <path clip-path="url(#p3f7a5b78dc)" d="M 285.301826 442.08 
L 292.396392 442.08 
L 292.396392 442.08 
L 285.301826 442.08 
z
" style="fill:#cccccc;opacity:0.4;"/>
   </g>
   <g id="patch_25">
    <path clip-path="url(#p3f7a5b78dc)" d="M 292.396392 442.08 
L 299.490959 442.08 
L 299.490959 442.08 
L 292.396392 442.08 
z
" style="fill:#cccccc;opacity:0.4;"/>
   </g>
   <g id="patch_26">
    <path clip-path="url(#p3f7a5b78dc)" d="M 299.490959 442.08 
L 306.585526 442.08 
L 306.585526 442.08 
L 299.490959 442.08 
z
" style="fill:#cccccc;opacity:0.4;"/>
   </g>
   <g id="patch_27">
    <path clip-path="url(#p3f7a5b78dc)" d="M 306.585526 442.08 
L 313.680093 442.08 
L 313.680093 442.08 
L 306.585526 442.08 
z
" style="fill:#cccccc;opacity:0.4;"/>
   </g>
   <g id="patch_28">
    <path clip-path="url(#p3f7a5b78dc)" d="M 313.680093 442.08 
L 320.77466 442.08 
L 320.77466 442.08 
L 313.680093 442.08 
z
" style="fill:#cccccc;opacity:0.4;"/>
   </g>
   <g id="patch_29">
    <path clip-path="url(#p3f7a5b78dc)" d="M 320.77466 442.08 
L 327.869227 442.08 
L 327.869227 442.08 
L 320.77466 442.08 
z
" style="fill:#cccccc;opacity:0.4;"/>
   </g>
   <g id="patch_30">
    <path clip-path="url(#p3f7a5b78dc)" d="M 327.869227 442.08 
L 334.963794 442.08 
L 334.963794 442.08 
L 327.869227 442.08 
z
" style="fill:#cccccc;opacity:0.4;"/>
   </g>
   <g id="patch_31">
    <path clip-path="url(#p3f7a5b78dc)" d="M 334.963794 442.08 
L 342.058361 442.08 
L 342.058361 442.08 
L 334.963794 442.08 
z
" style="fill:#cccccc;opacity:0.4;"/>
   </g>
   <g id="patch_32">
    <path clip-path="url(#p3f7a5b78dc)" d="M 342.058361 442.08 
L 349.152927 442.08 
L 349.152927 442.08 
L 342.058361 442.08 
z
" style="fill:#cccccc;opacity:0.4;"/>
   </g>
   <g id="patch_33">
    <path clip-path="url(#p3f7a5b78dc)" d="M 349.152927 442.08 
L 356.247494 442.08 
L 356.247494 442.08 
L 349.152927 442.08 
z
" style="fill:#cccccc;opacity:0.4;"/>
   </g>
   <g id="patch_34">
    <path clip-path="url(#p3f7a5b78dc)" d="M 356.247494 442.08 
L 363.342061 442.08 
L 363.342061 442.08 
L 356.247494 442.08 
z
" style="fill:#cccccc;opacity:0.4;"/>
   </g>
   <g id="patch_35">
    <path clip-path="url(#p3f7a5b78dc)" d="M 363.342061 442.08 
L 370.436628 442.08 
L 370.436628 442.08 
L 363.342061 442.08 
z
" style="fill:#cccccc;opacity:0.4;"/>
   </g>
   <g id="patch_36">
    <path clip-path="url(#p3f7a5b78dc)" d="M 370.436628 442.08 
L 377.531195 442.08 
L 377.531195 442.08 
L 370.436628 442.08 
z
" style="fill:#cccccc;opacity:0.4;"/>
   </g>
   <g id="patch_37">
    <path clip-path="url(#p3f7a5b78dc)" d="M 377.531195 442.08 
L 384.625762 442.08 
L 384.625762 437.89645 
L 377.531195 437.89645 
z
" style="fill:#cccccc;opacity:0.4;"/>
   </g>
   <g id="patch_38">
    <path clip-path="url(#p3f7a5b78dc)" d="M 384.625762 442.08 
L 391.720329 442.08 
L 391.720329 27.908571 
L 384.625762 27.908571 
z
" style="fill:#cccccc;opacity:0.4;"/>
   </g>
   <g id="matplotlib.axis_1">
    <g id="xtick_1">
     <g id="line2d_1"/>
     <g id="text_1">
      <!-- −0.25 -->
      <g transform="translate(52.049334 455.968437)scale(0.14 -0.14)">
       <defs>
        <path d="M 448 2048 
L 3232 2048 
L 3232 2426 
L 448 2426 
L 448 2048 
z
" id="Montserrat-Regular-2212" transform="scale(0.015625)"/>
        <path d="M 2118 -38 
C 3155 -38 3910 813 3910 2240 
C 3910 3667 3155 4518 2118 4518 
C 1082 4518 333 3667 333 2240 
C 333 813 1082 -38 2118 -38 
z
M 2118 384 
C 1338 384 800 1043 800 2240 
C 800 3437 1338 4096 2118 4096 
C 2899 4096 3437 3437 3437 2240 
C 3437 1043 2899 384 2118 384 
z
" id="Montserrat-Regular-30" transform="scale(0.015625)"/>
        <path d="M 678 -32 
C 864 -32 1024 122 1024 320 
C 1024 518 864 666 678 666 
C 493 666 339 518 339 320 
C 339 122 493 -32 678 -32 
z
" id="Montserrat-Regular-2e" transform="scale(0.015625)"/>
        <path d="M 928 410 
L 2451 1907 
C 3053 2496 3187 2880 3187 3309 
C 3187 4058 2611 4518 1702 4518 
C 1018 4518 461 4288 115 3878 
L 442 3597 
C 736 3936 1139 4096 1664 4096 
C 2349 4096 2714 3776 2714 3258 
C 2714 2950 2618 2650 2112 2150 
L 250 326 
L 250 0 
L 3392 0 
L 3392 410 
L 928 410 
z
" id="Montserrat-Regular-32" transform="scale(0.015625)"/>
        <path d="M 1510 2643 
L 934 2643 
L 1088 4070 
L 3136 4070 
L 3136 4480 
L 685 4480 
L 454 2234 
L 1408 2234 
C 2547 2234 2906 1875 2906 1299 
C 2906 755 2502 384 1741 384 
C 1165 384 653 602 365 902 
L 141 538 
C 486 186 1101 -38 1747 -38 
C 2842 -38 3373 557 3373 1318 
C 3373 2112 2861 2643 1510 2643 
z
" id="Montserrat-Regular-35" transform="scale(0.015625)"/>
       </defs>
       <use xlink:href="#Montserrat-Regular-2212"/>
       <use x="57.499985" xlink:href="#Montserrat-Regular-30"/>
       <use x="123.699982" xlink:href="#Montserrat-Regular-2e"/>
       <use x="144.899979" xlink:href="#Montserrat-Regular-32"/>
       <use x="201.699966" xlink:href="#Montserrat-Regular-35"/>
      </g>
     </g>
    </g>
    <g id="xtick_2">
     <g id="line2d_2"/>
     <g id="text_2">
      <!-- 0.00 -->
      <g transform="translate(112.527758 455.968437)scale(0.14 -0.14)">
       <use xlink:href="#Montserrat-Regular-30"/>
       <use x="66.199997" xlink:href="#Montserrat-Regular-2e"/>
       <use x="87.399994" xlink:href="#Montserrat-Regular-30"/>
       <use x="153.599991" xlink:href="#Montserrat-Regular-30"/>
      </g>
     </g>
    </g>
    <g id="xtick_3">
     <g id="line2d_3"/>
     <g id="text_3">
      <!-- 0.25 -->
      <g transform="translate(171.643369 455.968437)scale(0.14 -0.14)">
       <use xlink:href="#Montserrat-Regular-30"/>
       <use x="66.199997" xlink:href="#Montserrat-Regular-2e"/>
       <use x="87.399994" xlink:href="#Montserrat-Regular-32"/>
       <use x="144.199982" xlink:href="#Montserrat-Regular-35"/>
      </g>
     </g>
    </g>
    <g id="xtick_4">
     <g id="line2d_4"/>
     <g id="text_4">
      <!-- 0.50 -->
      <g transform="translate(228.769448 455.968437)scale(0.14 -0.14)">
       <use xlink:href="#Montserrat-Regular-30"/>
       <use x="66.199997" xlink:href="#Montserrat-Regular-2e"/>
       <use x="87.399994" xlink:href="#Montserrat-Regular-35"/>
       <use x="143.999985" xlink:href="#Montserrat-Regular-30"/>
      </g>
     </g>
    </g>
    <g id="xtick_5">
     <g id="line2d_5"/>
     <g id="text_5">
      <!-- 0.75 -->
      <g transform="translate(287.064747 455.968437)scale(0.14 -0.14)">
       <defs>
        <path d="M 205 4480 
L 205 3232 
L 659 3232 
L 659 4070 
L 2963 4070 
L 1120 0 
L 1619 0 
L 3494 4154 
L 3494 4480 
L 205 4480 
z
" id="Montserrat-Regular-37" transform="scale(0.015625)"/>
       </defs>
       <use xlink:href="#Montserrat-Regular-30"/>
       <use x="66.199997" xlink:href="#Montserrat-Regular-2e"/>
       <use x="87.399994" xlink:href="#Montserrat-Regular-37"/>
       <use x="146.299988" xlink:href="#Montserrat-Regular-35"/>
      </g>
     </g>
    </g>
    <g id="xtick_6">
     <g id="line2d_6"/>
     <g id="text_6">
      <!-- 1.00 -->
      <g transform="translate(345.773483 455.968437)scale(0.14 -0.14)">
       <defs>
        <path d="M 58 4480 
L 58 4070 
L 1114 4070 
L 1114 0 
L 1574 0 
L 1574 4480 
L 58 4480 
z
" id="Montserrat-Regular-31" transform="scale(0.015625)"/>
       </defs>
       <use xlink:href="#Montserrat-Regular-31"/>
       <use x="36.099991" xlink:href="#Montserrat-Regular-2e"/>
       <use x="57.299988" xlink:href="#Montserrat-Regular-30"/>
       <use x="123.499985" xlink:href="#Montserrat-Regular-30"/>
      </g>
     </g>
    </g>
    <g id="xtick_7">
     <g id="line2d_7"/>
     <g id="text_7">
      <!-- 1.25 -->
      <g transform="translate(404.889094 455.968437)scale(0.14 -0.14)">
       <use xlink:href="#Montserrat-Regular-31"/>
       <use x="36.099991" xlink:href="#Montserrat-Regular-2e"/>
       <use x="57.299988" xlink:href="#Montserrat-Regular-32"/>
       <use x="114.099976" xlink:href="#Montserrat-Regular-35"/>
      </g>
     </g>
    </g>
    <g id="xtick_8">
     <g id="line2d_8"/>
     <g id="text_8">
      <!-- 1.50 -->
      <g transform="translate(462.015173 455.968437)scale(0.14 -0.14)">
       <use xlink:href="#Montserrat-Regular-31"/>
       <use x="36.099991" xlink:href="#Montserrat-Regular-2e"/>
       <use x="57.299988" xlink:href="#Montserrat-Regular-35"/>
       <use x="113.899979" xlink:href="#Montserrat-Regular-30"/>
      </g>
     </g>
    </g>
    <g id="text_9">
     <!-- distance (mm) -->
     <g transform="translate(198.155 476.041875)scale(0.18 -0.18)">
      <defs>
       <path d="M 3251 4749 
L 3251 2726 
C 2970 3162 2509 3392 1971 3392 
C 1011 3392 294 2701 294 1683 
C 294 666 1011 -32 1971 -32 
C 2528 -32 2995 211 3270 666 
L 3270 0 
L 3706 0 
L 3706 4749 
L 3251 4749 
z
M 2010 371 
C 1293 371 755 896 755 1683 
C 755 2470 1293 2995 2010 2995 
C 2720 2995 3258 2470 3258 1683 
C 3258 896 2720 371 2010 371 
z
" id="Montserrat-Regular-64" transform="scale(0.015625)"/>
       <path d="M 864 4102 
C 1056 4102 1197 4250 1197 4435 
C 1197 4608 1050 4749 864 4749 
C 678 4749 531 4602 531 4429 
C 531 4250 678 4102 864 4102 
z
M 634 0 
L 1088 0 
L 1088 3366 
L 634 3366 
L 634 0 
z
" id="Montserrat-Regular-69" transform="scale(0.015625)"/>
       <path d="M 1536 -32 
C 2413 -32 2925 346 2925 928 
C 2925 2221 742 1536 742 2445 
C 742 2765 1011 3002 1619 3002 
C 1965 3002 2317 2918 2611 2714 
L 2810 3078 
C 2528 3270 2054 3392 1619 3392 
C 762 3392 288 2982 288 2432 
C 288 1101 2470 1792 2470 915 
C 2470 582 2208 365 1568 365 
C 1094 365 640 531 371 742 
L 166 384 
C 442 147 979 -32 1536 -32 
z
" id="Montserrat-Regular-73" transform="scale(0.015625)"/>
       <path d="M 2246 531 
C 2118 416 1933 358 1747 358 
C 1370 358 1165 576 1165 973 
L 1165 2982 
L 2189 2982 
L 2189 3366 
L 1165 3366 
L 1165 4102 
L 710 4102 
L 710 3366 
L 109 3366 
L 109 2982 
L 710 2982 
L 710 947 
C 710 326 1062 -32 1696 -32 
C 1958 -32 2227 45 2406 205 
L 2246 531 
z
" id="Montserrat-Regular-74" transform="scale(0.015625)"/>
       <path d="M 1811 3392 
C 1280 3392 781 3226 442 2938 
L 646 2598 
C 922 2842 1331 2995 1766 2995 
C 2394 2995 2720 2682 2720 2106 
L 2720 1901 
L 1651 1901 
C 685 1901 352 1466 352 947 
C 352 365 819 -32 1581 -32 
C 2138 -32 2534 179 2739 525 
L 2739 0 
L 3174 0 
L 3174 2086 
C 3174 2957 2682 3392 1811 3392 
z
M 1651 326 
C 1114 326 800 570 800 960 
C 800 1306 1011 1562 1664 1562 
L 2720 1562 
L 2720 1011 
C 2541 570 2163 326 1651 326 
z
" id="Montserrat-Regular-61" transform="scale(0.015625)"/>
       <path d="M 2349 3392 
C 1766 3392 1312 3155 1069 2746 
L 1069 3366 
L 634 3366 
L 634 0 
L 1088 0 
L 1088 1766 
C 1088 2534 1542 2982 2266 2982 
C 2906 2982 3277 2618 3277 1907 
L 3277 0 
L 3731 0 
L 3731 1952 
C 3731 2918 3168 3392 2349 3392 
z
" id="Montserrat-Regular-6e" transform="scale(0.015625)"/>
       <path d="M 2029 -32 
C 2598 -32 3078 198 3347 634 
L 3008 864 
C 2778 525 2419 371 2029 371 
C 1293 371 755 890 755 1683 
C 755 2470 1293 2995 2029 2995 
C 2419 2995 2778 2835 3008 2496 
L 3347 2726 
C 3078 3168 2598 3392 2029 3392 
C 1024 3392 294 2688 294 1683 
C 294 678 1024 -32 2029 -32 
z
" id="Montserrat-Regular-63" transform="scale(0.015625)"/>
       <path d="M 3571 1683 
C 3571 2694 2886 3392 1939 3392 
C 992 3392 294 2682 294 1683 
C 294 685 1011 -32 2061 -32 
C 2592 -32 3059 160 3360 518 
L 3104 813 
C 2848 518 2483 371 2074 371 
C 1338 371 800 838 749 1542 
L 3565 1542 
C 3565 1594 3571 1645 3571 1683 
z
M 1939 3002 
C 2598 3002 3078 2541 3136 1882 
L 749 1882 
C 806 2541 1286 3002 1939 3002 
z
" id="Montserrat-Regular-65" transform="scale(0.015625)"/>
       <path id="Montserrat-Regular-20" transform="scale(0.015625)"/>
       <path d="M 1408 -1242 
L 1843 -1242 
C 1338 -365 1114 614 1114 1754 
C 1114 2893 1338 3872 1843 4749 
L 1408 4749 
C 934 3987 666 2931 666 1754 
C 666 576 934 -467 1408 -1242 
z
" id="Montserrat-Regular-28" transform="scale(0.015625)"/>
       <path d="M 4832 3392 
C 4224 3392 3744 3117 3501 2682 
C 3296 3155 2861 3392 2304 3392 
C 1741 3392 1306 3155 1069 2752 
L 1069 3366 
L 634 3366 
L 634 0 
L 1088 0 
L 1088 1766 
C 1088 2534 1530 2982 2214 2982 
C 2829 2982 3187 2618 3187 1907 
L 3187 0 
L 3642 0 
L 3642 1766 
C 3642 2534 4077 2982 4768 2982 
C 5376 2982 5734 2618 5734 1907 
L 5734 0 
L 6189 0 
L 6189 1952 
C 6189 2918 5651 3392 4832 3392 
z
" id="Montserrat-Regular-6d" transform="scale(0.015625)"/>
       <path d="M 691 -1242 
C 1171 -467 1440 576 1440 1754 
C 1440 2931 1171 3987 691 4749 
L 256 4749 
C 768 3872 992 2893 992 1754 
C 992 614 768 -365 256 -1242 
L 691 -1242 
z
" id="Montserrat-Regular-29" transform="scale(0.015625)"/>
      </defs>
      <use xlink:href="#Montserrat-Regular-64"/>
      <use x="67.799988" xlink:href="#Montserrat-Regular-69"/>
      <use x="94.699982" xlink:href="#Montserrat-Regular-73"/>
      <use x="143.599976" xlink:href="#Montserrat-Regular-74"/>
      <use x="184.199966" xlink:href="#Montserrat-Regular-61"/>
      <use x="243.199951" xlink:href="#Montserrat-Regular-6e"/>
      <use x="310.899933" xlink:href="#Montserrat-Regular-63"/>
      <use x="367.199921" xlink:href="#Montserrat-Regular-65"/>
      <use x="427.599915" xlink:href="#Montserrat-Regular-20"/>
      <use x="453.799911" xlink:href="#Montserrat-Regular-28"/>
      <use x="486.699905" xlink:href="#Montserrat-Regular-6d"/>
      <use x="592.799896" xlink:href="#Montserrat-Regular-6d"/>
      <use x="698.899887" xlink:href="#Montserrat-Regular-29"/>
     </g>
    </g>
   </g>
   <g id="matplotlib.axis_2">
    <g id="ytick_1">
     <g id="line2d_9"/>
     <g id="text_10">
      <!-- 0 -->
      <g transform="translate(28.049688 447.274219)scale(0.14 -0.14)">
       <use xlink:href="#Montserrat-Regular-30"/>
      </g>
     </g>
    </g>
    <g id="ytick_2">
     <g id="line2d_10"/>
     <g id="text_11">
      <!-- 1 -->
      <g transform="translate(32.265 383.069145)scale(0.14 -0.14)">
       <use xlink:href="#Montserrat-Regular-31"/>
      </g>
     </g>
    </g>
    <g id="ytick_3">
     <g id="line2d_11"/>
     <g id="text_12">
      <!-- 2 -->
      <g transform="translate(29.366563 318.86407)scale(0.14 -0.14)">
       <use xlink:href="#Montserrat-Regular-32"/>
      </g>
     </g>
    </g>
    <g id="ytick_4">
     <g id="line2d_12"/>
     <g id="text_13">
      <!-- 3 -->
      <g transform="translate(29.42125 254.658996)scale(0.14 -0.14)">
       <defs>
        <path d="M 1856 2560 
L 3123 4154 
L 3123 4480 
L 243 4480 
L 243 4070 
L 2534 4070 
L 1293 2515 
L 1293 2176 
L 1613 2176 
C 2445 2176 2822 1824 2822 1286 
C 2822 730 2413 384 1670 384 
C 1088 384 570 602 282 902 
L 58 538 
C 403 186 1024 -38 1670 -38 
C 2752 -38 3296 538 3296 1286 
C 3296 2003 2816 2509 1856 2560 
z
" id="Montserrat-Regular-33" transform="scale(0.015625)"/>
       </defs>
       <use xlink:href="#Montserrat-Regular-33"/>
      </g>
     </g>
    </g>
    <g id="ytick_5">
     <g id="line2d_13"/>
     <g id="text_14">
      <!-- 4 -->
      <g transform="translate(28.065 190.453922)scale(0.14 -0.14)">
       <defs>
        <path d="M 4141 1587 
L 3245 1587 
L 3245 2624 
L 2797 2624 
L 2797 1587 
L 851 1587 
L 3142 4480 
L 2630 4480 
L 256 1510 
L 256 1178 
L 2784 1178 
L 2784 0 
L 3245 0 
L 3245 1178 
L 4141 1178 
L 4141 1587 
z
" id="Montserrat-Regular-34" transform="scale(0.015625)"/>
       </defs>
       <use xlink:href="#Montserrat-Regular-34"/>
      </g>
     </g>
    </g>
    <g id="ytick_6">
     <g id="line2d_14"/>
     <g id="text_15">
      <!-- 5 -->
      <g transform="translate(29.395 126.248848)scale(0.14 -0.14)">
       <use xlink:href="#Montserrat-Regular-35"/>
      </g>
     </g>
    </g>
    <g id="ytick_7">
     <g id="line2d_15"/>
     <g id="text_16">
      <!-- 6 -->
      <g transform="translate(28.79125 62.043773)scale(0.14 -0.14)">
       <defs>
        <path d="M 2189 2682 
C 1568 2682 1043 2406 819 1914 
C 806 2048 800 2176 800 2278 
C 800 3494 1421 4115 2387 4115 
C 2720 4115 3027 4058 3258 3904 
L 3443 4275 
C 3162 4448 2784 4518 2381 4518 
C 1165 4518 333 3725 333 2202 
C 333 787 979 -38 2170 -38 
C 3040 -38 3699 499 3699 1338 
C 3699 2157 3078 2682 2189 2682 
z
M 2150 352 
C 1376 352 966 819 966 1312 
C 966 1869 1434 2291 2118 2291 
C 2810 2291 3245 1914 3245 1325 
C 3245 730 2797 352 2150 352 
z
" id="Montserrat-Regular-36" transform="scale(0.015625)"/>
       </defs>
       <use xlink:href="#Montserrat-Regular-36"/>
      </g>
     </g>
    </g>
    <g id="text_17">
     <!-- count -->
     <g transform="translate(20.556563 251.153437)rotate(-90)scale(0.18 -0.18)">
      <defs>
       <path d="M 2010 -32 
C 2995 -32 3718 685 3718 1683 
C 3718 2682 2995 3392 2010 3392 
C 1024 3392 294 2682 294 1683 
C 294 685 1024 -32 2010 -32 
z
M 2010 371 
C 1293 371 755 896 755 1683 
C 755 2470 1293 2995 2010 2995 
C 2726 2995 3258 2470 3258 1683 
C 3258 896 2726 371 2010 371 
z
" id="Montserrat-Regular-6f" transform="scale(0.015625)"/>
       <path d="M 3213 3366 
L 3213 1600 
C 3213 832 2771 378 2067 378 
C 1427 378 1056 742 1056 1459 
L 1056 3366 
L 602 3366 
L 602 1414 
C 602 448 1165 -32 2022 -32 
C 2560 -32 2995 205 3232 614 
L 3232 0 
L 3667 0 
L 3667 3366 
L 3213 3366 
z
" id="Montserrat-Regular-75" transform="scale(0.015625)"/>
      </defs>
      <use xlink:href="#Montserrat-Regular-63"/>
      <use x="56.299988" xlink:href="#Montserrat-Regular-6f"/>
      <use x="118.999985" xlink:href="#Montserrat-Regular-75"/>
      <use x="186.299973" xlink:href="#Montserrat-Regular-6e"/>
      <use x="253.999954" xlink:href="#Montserrat-Regular-74"/>
     </g>
    </g>
   </g>
   <g id="line2d_16">
    <path clip-path="url(#p3f7a5b78dc)" d="M 61.109034 441.876006 
L 69.266183 441.523193 
L 75.384046 440.97224 
L 79.46262 440.380658 
L 83.541195 439.53561 
L 87.61977 438.360482 
L 91.698344 436.769355 
L 93.737632 435.789376 
L 95.776919 434.671131 
L 97.816206 433.403382 
L 99.855494 431.975376 
L 101.894781 430.377079 
L 103.934068 428.599413 
L 105.973356 426.634489 
L 108.012643 424.47581 
L 110.05193 422.118451 
L 112.091218 419.559202 
L 114.130505 416.796664 
L 116.169792 413.831305 
L 120.248367 407.303293 
L 124.326942 400.015251 
L 128.405517 392.033199 
L 132.484091 383.444887 
L 136.562666 374.356125 
L 142.680528 360.057473 
L 154.916252 331.055817 
L 158.994827 322.052019 
L 163.073401 313.844814 
L 165.112689 310.143305 
L 167.151976 306.767825 
L 169.191263 303.762344 
L 171.230551 301.170121 
L 173.269838 299.032662 
L 175.309125 297.388597 
L 177.348413 296.272539 
L 179.3877 295.713963 
L 181.426987 295.736145 
L 183.466275 296.355226 
L 185.505562 297.579433 
L 187.54485 299.408493 
L 189.584137 301.833288 
L 191.623424 304.835745 
L 193.662712 308.389 
L 195.701999 312.457808 
L 197.741286 316.999217 
L 199.780574 321.963444 
L 203.859148 332.933755 
L 207.937723 344.878573 
L 218.13416 375.651658 
L 222.212734 387.123399 
L 226.291309 397.593874 
L 228.330596 402.384417 
L 230.369884 406.854938 
L 232.409171 410.995744 
L 234.448458 414.803042 
L 236.487746 418.278393 
L 238.527033 421.428096 
L 240.566321 424.262517 
L 242.605608 426.795388 
L 244.644895 429.043109 
L 246.684183 431.024071 
L 248.72347 432.758014 
L 250.762757 434.265442 
L 252.802045 435.567104 
L 254.841332 436.683538 
L 256.880619 437.634698 
L 258.919907 438.439648 
L 262.998481 439.681426 
L 267.077056 440.536464 
L 271.155631 441.109685 
L 275.234205 441.483581 
L 281.352067 441.801761 
L 289.509217 441.971313 
L 299.705654 441.970262 
L 307.862803 441.803544 
L 313.980665 441.501897 
L 318.05924 441.157933 
L 322.137814 440.645529 
L 326.216389 439.905551 
L 330.294964 438.869273 
L 334.373538 437.462417 
L 338.452113 435.611976 
L 340.4914 434.500277 
L 342.530688 433.255901 
L 344.569975 431.874776 
L 348.64855 428.697659 
L 352.727125 424.98844 
L 356.805699 420.819615 
L 362.923561 414.008409 
L 369.041423 407.151769 
L 373.119998 402.984785 
L 375.159285 401.125724 
L 377.198573 399.460374 
L 379.23786 398.018962 
L 381.277147 396.828341 
L 383.316435 395.91116 
L 385.355722 395.285148 
L 387.395009 394.962544 
L 389.434297 394.949699 
L 391.473584 395.246869 
L 393.512871 395.848205 
L 395.552159 396.741944 
L 397.591446 397.910796 
L 399.630733 399.332493 
L 401.670021 400.980502 
L 403.709308 402.82484 
L 407.787883 406.970824 
L 413.905745 413.817225 
L 420.023607 420.640308 
L 424.102182 424.825879 
L 428.180756 428.556023 
L 432.259331 431.755877 
L 434.298618 433.148407 
L 436.337906 434.40393 
L 438.377193 435.526351 
L 442.455768 437.396459 
L 446.534342 438.820115 
L 450.612917 439.87013 
L 454.691492 440.620958 
L 458.770067 441.141779 
L 464.887929 441.619566 
L 466.927216 441.721583 
L 466.927216 441.721583 
" style="fill:none;stroke:#cccccc;stroke-linecap:square;stroke-width:4;"/>
   </g>
   <g id="patch_39">
    <path d="M 40.818125 442.08 
L 40.818125 7.2 
" style="fill:none;stroke:#000000;stroke-linecap:square;stroke-linejoin:miter;stroke-width:0.5;"/>
   </g>
   <g id="patch_40">
    <path d="M 40.818125 442.08 
L 487.218125 442.08 
" style="fill:none;stroke:#000000;stroke-linecap:square;stroke-linejoin:miter;stroke-width:0.5;"/>
   </g>
  </g>
 </g>
 <defs>
  <clipPath id="p3f7a5b78dc">
   <rect height="434.88" width="446.4" x="40.818125" y="7.2"/>
  </clipPath>
 </defs>
</svg>
